<?xml version="1.0" encoding="UTF-8"?>
<svg version="1.1" viewBox="0 0 2000 2000" width="1280" height="1280" xmlns="http://www.w3.org/2000/svg">
<path transform="translate(1257,398)" d="m0 0h45l133 3 23 2 5 3 3 6v64l-1 178 3 8 6 7 11 9 34 28 14 12 8 8 6 5 7 8 12 12 7 8 10 11 8 10 14 17 11 14 11 15 9 13 12 19 10 16 17 32 14 29 11 27 9 25 7 23 9 39v3l80 1 1 1-1 7-2 1-13 1-59 1v7l6 36 3 28 1 29v42l-1 25-3 27-4 25-6 27-10 33-15 45-4 7-4 2h-7l-5-4-1-6 5-34 7-34v-5l-2-1-9-1h-92l-12 1-1 1v14l5 18-1 1-35 2-6 1v5h-2l-1 4h-5v2l5 1 12 6h9l5-3h8l8 3 3 4-17 7-4 1 2 4 1 1 7 1 17 1 4 10 1 3 3 1h51l30-1 9-1h9l26 2 12 3 10 9 4 9v12l-5 10-8 7-4 1-38 1h-174l-66 1-15 1-5 1 2 16 2 15 1 25-2 12-7 12-9 8-10 4-8 1h-708l-13-1-8-3-10-8-7-9-3-8-1-6v-21l2-16 10-20-1-1-10-1-34-1-347-1-12-1-6-3-7-8-4-10v-9l4-10 8-7 8-3 20-1 50-1-2-6-9-5-14-14-9-11-8-9-9-14-8-17-8-24-13-52-4-21-4-30-3-42-1-24v-15l3-40 2-21 5-35 8-40 8-31 9-29 9-25 12-29 10-22 8-16 11-20 14-23 10-15 13-19 10-13 12-16 9-11 12-14 12-13 10-10 4-5 8-7 4-5 8-7 9-9 11-9 10-9 11-9 13-10 22-15 17-12 24-15 24-13 19-10 34-16 28-11 22-8 43-13 37-9 33-6 34-4 37-3h72l52 4 38 4 31 6 13 1 4-6 1-4v-9l-2-8v-34l2-13 4-6 5-3 19-1 92-1zm-457 174-1 1v5l80 1 53 1 4-1 1-5-6-2zm-118 29-8 4-5 7-1 4v9l5 10 7 4 2 1h11l8-4 5-6 1-3v-14l-4-7-6-4-3-1zm-121 140-6 3-5 6-4 14v26l3 9 5 5 6 2h8l7-4 4-6 3-21v-18l-4-11-5-4-2-1zm988 119-13 5-7 5-6 10-2 7v15l5 12 4 5 10 6 10 3h9l9-2 8-5 8-9 3-9v-18l-6-12-9-8-10-4-4-1zm22 311 4 2v-2zm-8 1-7 4-11 15-4 8v10l4 7 4 2 7-1 6-3 7-8 4-13 1-6v-9l-3-6zm-1188 91-12 3-10 2-4 2-14-1-11-1-7 2-6 8-6 20-3 5 7 3 37 1h39l15-1 7-3v-5l-4 1-5 1 2-12 3-5-3-12-5-6-7-2z" fill="#FCFCFC"/>
<path transform="translate(1101,765)" d="m0 0h11l15 5 10 6 9 7 7 8 9 13 9 19 8 26 7 29 7 21 8 16 9 11 9 10 11 10 11 9 11 10 8 7 15 14 8 8 13 17 8 13 7 17 3 8 3 14 1 24-2 18-6 24v7l6 32 4 27 5 53 2 33 1 27 7 7 8 7 8 9 1 4 47 1-3-6-6-11-5-24-8-44-2-17h121l5 1-3 21-9 46-5 17-6 11-4 6h105l3 10-1 1-35 2-6 1v5h-2l-1 4h-5v2l5 1 12 6h9l5-3h8l8 3 3 4-17 7-4 1 2 4 1 1 7 1 17 1 4 10 1 3 3 1h51l30-1 9-1h9l26 2 12 3 10 9 4 9v12l-5 10-8 7-4 1-38 1h-174l-66 1-15 1-5 1 2 16 2 15 1 25-2 12-7 12-9 8-10 4-8 1h-708l-13-1-8-3-10-8-7-9-3-8-1-6v-21l2-16 10-20-1-1-10-1-34-1-347-1-12-1-6-3-7-8-4-10v-9l4-10 8-7 8-3 20-1 50-1-5-17-9-28-10-30-6-17 2-2h81l15-1 7-2v-5l-5 3-4-1v-8l3-7 1-4-3-10-4-5-7-2h-13l-8 2h-7l-6-19-1-9v-26l-14-14-7-8-12-14-12-16-12-20-11-23-8-26-3-17v-15l2-12 5-10 7-6 5-2h13l14 7 10 8 9 9 10 13 6 10 11 20 1 7h2l6 19 3 9 2 11 1 11v10l6-3v-184l-11-1-8-4-8-9-5-11-3-7-1-6v-22l2-7 6-18 7-11 9-8 12-6h16l8 7 8 10 4 11 2 13v13l-3 14-6 17-7 10-9 9-8 4-1 115v67l4-1 14-5h2l-1-11 1-5 3-21 5-22 5-16 10-25 10-18 9-12 9-10 8-8 10-7 11-5 3-1h12l8 5 4 5 5 12 3 10 1 11v13l-3 19-5 16-9 19-9 14-9 12h-2l-2 4-8 8-5 3v2l16 2 10 5 5 4 5 10v10l-3 16-8 14-6 8h-2l-2 4-5 5-10 9 67-4h9v10l-3 19-2 4-141 6 4 16 6 30 12 43 2 8h115l-1 12-4 27 109 1-1-2-10-5-9-9-7-14-13-40-12-36-10-32-10-31-27-82-12-39-1-11 4-7 2-2 8-2h330l10 4 7 8 7 17 9 30 10 31 3 8 5-11 8-21 8-23 11-29 10-25 7-15 8-15 2-5 5-4 5-5 6-5 17-9 19-8 15-6 26-9h2l-1-10v-13l-13-1-11-4-9-6-3-6-6-7-7-14-3-12-1-1-3-33-2-12v-6l-5-2-9-8-5-7-5-12v-22l4-13 5-9 6-7 10-7 11-4 23-2 12-3 19-8z" fill="#1E3576"/>
<path transform="translate(879,469)" d="m0 0h72l52 4 38 4 31 6 16 2v202l-2 1-189 1h-266l-3 2-1 4-1 25-1 105v264l-75 1-9 3-4 7 1 11 14 45 25 76 10 31 13 41 10 31 14 41 6 10 8 8 10 5v2h-110l5-35 1-5h-115l-5-15-11-40-5-26-4-15 1-2 116-5 25-1 2-9 3-23-22 2-39 2-15 1-1-2 9-7 4-2 2-4 3-4h2l2-4 7-11 4-7 3-16v-10l-5-10-9-6-10-3-11-1v-4l8-6 7-8h2l2-4 10-14 9-16 6-13 5-19 2-14v-13l-1-11-6-18-6-9-7-4h-12l-12 5-9 6-10 9-7 7-11 15-10 18-10 25-5 16-5 22-4 28v9l-16 6-4 1-1-1v-67l1-115 4-3 6-3 9-9 6-11 6-17 2-11v-13l-3-16-4-9-7-9-7-6h-16l-12 6-9 8-6 10-6 18-2 7v22l2 7 5 13 6 9 6 5 5 2 9 1 2 1 1 184-4 3h-3l-2-21-4-19-4-10-2-10h-2l-3-9-7-12-3-6-9-14-11-13-7-7-10-7-11-5h-13l-8 4-6 8-3 9-1 8v15l4 21 8 24 12 25 13 20 11 14 11 13 15 16 1 3 4 2v26l1 9 5 16v3l3 1-10 2-4 2-14-1-11-1-7 2-5 7-6 20-3 5 6 2v1l-6 2 11 31 13 42 3 9v3l-6-2-8-7-9-9-9-11-8-9-9-14-8-17-8-24-13-52-4-21-4-30-3-42-1-24v-15l3-40 2-21 5-35 8-40 8-31 9-29 9-25 12-29 10-22 8-16 11-20 14-23 10-15 13-19 10-13 12-16 9-11 12-14 12-13 10-10 4-5 8-7 4-5 8-7 9-9 11-9 10-9 11-9 13-10 22-15 17-12 24-15 24-13 19-10 34-16 28-11 22-8 43-13 37-9 33-6 34-4zm-79 103-1 1v5l80 1 53 1 4-1 1-5-6-2zm-118 29-8 4-5 7-1 4v9l5 10 7 4 2 1h11l8-4 5-6 1-3v-14l-4-7-6-4-3-1zm-121 140-6 3-5 6-4 14v26l3 9 5 5 6 2h8l7-4 4-6 3-21v-18l-4-11-5-4-2-1z" fill="#D7EFFD"/>
<path transform="translate(1466,662)" d="m0 0 3 1 5 6 11 9 34 28 14 12 8 8 6 5 7 8 12 12 7 8 10 11 8 10 14 17 11 14 11 15 9 13 12 19 10 16 17 32 14 29 11 27 9 25 7 23 9 39v3l80 1 1 1-1 7-2 1-13 1-59 1v7l6 36 3 28 1 29v42l-1 25-3 27-4 25-6 27-10 33-15 45-4 7-4 2h-7l-5-4-1-6 5-34 7-34v-5l-2-1-9-1h-92l-12 1-1 1v14l1 8h-104l2-5 6-10 5-15 7-34 4-21 2-14 1-2-126-1 2 7 3 21 8 43 3 14 6 11 2 3v3h-47l-2-2v-3l-12-13-10-9-1-1-2-46-4-47-3-27-7-43-2-9v-7l6-24 2-18-1-24-5-21-7-15-6-11-9-13-11-13-12-12-8-7-11-10-11-9-12-11-8-7-10-11-7-10-7-14-5-15 1-2 9-1 266-1 2-217zm83 198-13 5-7 5-6 10-2 7v15l5 12 4 5 10 6 10 3h9l9-2 8-5 8-9 3-9v-18l-6-12-9-8-10-4-4-1zm22 311 4 2v-2zm-8 1-7 4-11 15-4 8v10l4 7 4 2 7-1 6-3 7-8 4-13 1-6v-9l-3-6z" fill="#D7EFFD"/>
<path transform="translate(1101,765)" d="m0 0h11l15 5 10 6 9 7 7 8 9 13 9 19 8 26 7 29 7 21 8 16 9 11 9 10 11 10 11 9 11 10 8 7 15 14 8 8 13 17 8 13 7 17 3 8 3 14 1 24-2 18-6 24v7l6 32 4 27 5 53 2 33 1 27 7 7 8 7 8 9 1 4 47 1-3-6-6-11-5-24-8-44-2-17h121l5 1-3 21-9 46-5 17-6 11-4 6h105l3 10-1 1-35 2-6 1v5h-2l-1 4h-5v2l5 1 12 6h9l5-3h8l8 3 3 4-17 7-4 1 3 6-296 1-4 1-1 7 8 1 1 4-89 1 1-3 11-8 6-7 5-9v-7l-2-8-20 1h-103l-104-1-3-8-11-38-2-5v-3l10 1h15l12 2-2-6-6-4-31 1-3-6-12-41-15-49-4-12 1-4 5-11 8-21 8-23 11-29 10-25 7-15 8-15 2-5 5-4 5-5 6-5 17-9 19-8 15-6 26-9h2l-1-10v-13l-13-1-11-4-9-6-3-6-6-7-7-14-3-12-1-1-3-33-2-12v-6l-5-2-9-8-5-7-5-12v-22l4-13 5-9 6-7 10-7 11-4 23-2 12-3 19-8z" fill="#FB6D9A"/>
<path transform="translate(550,1089)" d="m0 0h330l10 4 7 8 7 17 9 30 10 31 4 14 12 40 7 22 12 41 1 2 32-1 7 6v5l-12-1h-16l-9-2 5 16 9 30 2 7 104 1h123l3 8v7l-7 12-7 7-9 6-4 1h-71v-2l7-6 5-3 1-2h-12l-1-6-1-1-2 7h-6v2l-10 10-5 1h-437l-11-6-9-9-7-14-13-40-12-36-10-32-10-31-27-82-12-39-1-11 4-7 2-2z" fill="#0C2567"/>
<path transform="translate(652,1454)" d="m0 0h785v1l-5 1 2 16 2 15 1 25-2 12-7 12-9 8-10 4-8 1h-708l-13-1-8-3-10-8-7-9-3-8-1-6v-21l2-16 10-20-1-1-10-1z" fill="#B7BDFB"/>
<path transform="translate(387,866)" d="m0 0h16l8 7 8 10 4 11 2 13v13l-3 14-6 17-7 10-9 9-8 4-1 115v67l4-1 14-5h2l-1-11 1-5 3-21 5-22 5-16 10-25 10-18 9-12 9-10 8-8 10-7 11-5 3-1h12l8 5 4 5 5 12 3 10 1 11v13l-3 19-5 16-9 19-9 14-9 12h-2l-2 4-8 8-5 3v2l16 2 10 5 5 4 5 10v10l-3 16-8 14-6 8h-2l-2 4-5 5-10 9 67-4h9v10l-3 19-2 4-141 6 4 16 6 30 12 43 2 8h115l-1 12-4 27-6 1h-214v-1h13l-5-17-9-28-10-30-6-17 2-2h81l15-1 7-2v-5l-5 3-4-1v-8l3-7 1-4-3-10-4-5-7-2h-13l-8 2h-7l-6-19-1-9v-26l-14-14-7-8-12-14-12-16-12-20-11-23-8-26-3-17v-15l2-12 5-10 7-6 5-2h13l14 7 10 8 9 9 10 13 6 10 11 20 1 7h2l6 19 3 9 2 11 1 11v10l6-3v-184l-11-1-8-4-8-9-5-11-3-7-1-6v-22l2-7 6-18 7-11 9-8z" fill="#16488E"/>
<path transform="translate(1101,765)" d="m0 0h11l15 5 10 6 9 7 7 8 9 13 9 19 8 26 7 29 7 21 8 16 9 11 9 10 11 10 11 9 11 10 8 7 15 14 8 8 13 17 8 13 7 17 3 8 3 14 1 24-2 18-6 24h-2l-14-48-11-28-10-21-10-14-8-6-12-5-23-5-50-7-13-3-3-4-5-15-5-22-3-22-1-10v-15l11-3 5-5 3-7v-11l-4-8-7-4-3-1h-8l-2 13-3 3-4 1h-11l-16-4-16-8-13-11-10-12-11-17-4-1-12 7-12 11-2 4-1 20-5-2-8-7-5-7-5-12v-22l4-13 5-9 6-7 10-7 11-4 23-2 12-3 19-8z" fill="#0C2567"/>
<path transform="translate(1047,828)" d="m0 0 4 1 7 10 6 9 12 14 12 9 15 7 14 3h11l5-2 1-1 2-13 1-1h8l9 4 5 7 1 3v11l-4 8-5 5-6 2h-5l3 34 5 28 5 17 5 10 5 1-3 3 1 5v13l-3 16-4 11-6 12-9 10-7 6-14 7-5 1h-14l-12-5-8-9-6-18v-20l2-13 3-12v-4h2l-1-10v-13l-13-1-11-4-9-6-3-6-6-7-7-14-3-12-1-1-3-33-2-12v-6l-2-1 1-20 4-6 7-7 14-9z" fill="#FC9A8D"/>
<path transform="translate(1466,717)" d="m0 0h2l2 3 3 16v4h2l3 14 4 2 7 21 5 7 1 10 2 6 2 11v8l1 4v13l2 6v17l1 5-2 6h-2l-1 4-1 1v9l-4 5h-2l-2 9-1 4-4 3-2 7-4 1-3 7-8 1-9 2-8 3-1 4-4 1-5-1v2l-13 3-12 2-9 1-42 2h-22l-6-2-9-1-7-4-19-1-27-2-2-1v-2l-19-4-7-3h-11l-6-2-7-1-9-7-6-5-8-14-7-7 1-2 271-1 1-39 1-74z" fill="#CEE6FC"/>
<path transform="translate(407,1298)" d="m0 0 2 2 1 4 3-3 7 27 8 28 1 5h115l-1 12-4 27-6 1h-214v-1h13l-5-17-9-28-10-30-6-17 2-2h81l15-1 7-2z" fill="#567AD9"/>
<path transform="translate(1375,1234)" d="m0 0h121l5 1-3 21-9 46-5 17-6 11-4 6h105l3 10-1 1h-310l-7-3v-7l7-1 81-1 47 1-3-6-6-11-5-24-8-44z" fill="#3041AF"/>
<path transform="translate(546,1257)" d="m0 0 1 2-8 76-2 18 1 5 7 1 1 4v6h2l-2 4-2 6h-2l1-13 1-5h-115l-5-15-11-40-5-26-4-15 1-2 116-5z" fill="#FCFCFC"/>
<path transform="translate(1573,1141)" d="m0 0 4 2 8 18 7 15 5 13 8 16 7 18 4 9v4l32-1 1-1-5-15-13-27-6-15-1-1v-6l6-2 4 4 18 36 4 10 1 17h46l3 1v9l-10 58-3 9h-117l-3-6-11-61v-9l49-1-10-23-8-18-7-14-6-16-8-18z" fill="#FB6D9A"/>
<path transform="translate(1273,1347)" d="m0 0h289v1l-16 1-6 1v5h-2l-1 4h-5v2l5 1 12 6h9l5-3h8l8 3 3 4-17 7-4 1 3 6h-293l1-29z" fill="#FBFBFC"/>
<path transform="translate(517 1e3)" d="m0 0 4 4 5 16 1 11v13l-3 19-5 16-9 19-9 14-9 12h-2l-2 4-8 8-5 3v2l16 2 10 5 5 4 5 10v10l-3 16-8 14-6 8h-2l-2 4-5 5-9 8-3 2-14 1h-10l-3-8-11-41-11-37-1-4 3 1v2l5-2 9-14 14-23 8-13 15-24 38-57z" fill="#16488E"/>
<path transform="translate(1021,1244)" d="m0 0 7 6 10 10 11 9 7 5-1 6-12 35-1 6h2l1-7 3-7 2-6 5-17 3-1v2l9 3 4 4 11 9 15 11 12 9 9 4 11 7 8 9 2 5v11l-4 2h-158l-3-8-11-38-2-5v-3l10 1h15l12 2-2-6-4-3 1-5 9-15 39 1v-3h-37l2-5 10-18z" fill="#FC9B8D"/>
<path transform="translate(494,989)" d="m0 0h12l8 5 4 5-2 12-36 54-15 24-11 18-14 23-8 12-2 2h-4l-1-2-10-6-4-2 3-21 5-22 5-16 10-25 10-18 9-12 9-10 8-8 10-7 11-5z" fill="#458BD7"/>
<path transform="translate(412,1135)" d="m0 0 5 1 6 5 4 11 13 44 9 34h13l28-2 52-3h9v10l-3 19-2 4-141 6-3-7-4-16v-8l35-2-4-16-10-36-8-29-1-11z" fill="#FA6D9A"/>
<path transform="translate(1493,685)" d="m0 0 8 6 13 11 11 9 13 12 5 4 7 8 16 16 7 8 10 11 8 10 14 17 11 14 11 15 9 13 12 19 10 16 17 32 14 29 11 27 9 25 7 23 9 39v3l2 1h-14v-8l-3-13v-14l-5-17-8-20-4-7-6-12-8-19-9-19-6-11-10-18-11-12-6-9-3-2v-2l-3-1-5-7v-2l-4-2-4-8-5-8-2-5-9-11-3-6-7-10-8-10-7-12-1-3h-2l-8-10-5-6-3-6-6-4-7-10-9-11-10-13-4-4 1 4h2l15 24 7 11 3 3v2l5 2 3 5v2h2l4 9-1 3-5-7-6-5-13-18-6-10-6-8-6-11-10-14-6-7-5-9-5-6v-2l-2-1z" fill="#E3FAFE"/>
<path transform="translate(387,866)" d="m0 0h16l3 3-15-2v2l5-1 11 6 6 7 6 12 2 11v13l-2 16-7 17h-2l-2 7-5 3-4 1v2h-2l-1 5-7 5h-2v3l-11-1-8-4-8-9-5-11-3-7-1-6v-22l2-7 6-18 7-11 9-8z" fill="#2C83D2"/>
<path transform="translate(1489,982)" d="m0 0h143l13 1 7 6 1 5h12l16 1 2 3-2 3h-29l-1 5-2 5-3 1h-175v-29z" fill="#3345B2"/>
<path transform="translate(286,1032)" d="m0 0h1l2 6 11 21 14 31 13 28 11 24 7 16 15 30v7l-5 16h-3l-13-13-7-8-12-14-12-16-12-20-11-23-8-26-3-17v-15l2-12 5-10z" fill="#2A82D2"/>
<path transform="translate(1200,1134)" d="m0 0 2 1 4 11 2 11 10 48 6 34 1 9v17l-22 12-34 16-54 27-1 1h-6l-15-11-16-12-12-10h-2v-2l-5-1v-2l-2 1-6 21 1 2-3 1-4 13h-2v-6l12-35 1-6-8-6-8-7h3l7 5 19 6 19 3 13 1h14l20-2 20-4 27-8 25-10 14-6-4-28-8-42-7-36z" fill="#C55693"/>
<path transform="translate(1304,416)" d="m0 0h140v20l-2 6-4 2h-4l-3 9-11 1h-115l-1-1z" fill="#FA6D9A"/>
<path transform="translate(622,534)" d="m0 0h8l-1 5-10 5-1 1h-8l-8 7h-5l-1 3-8 4-9 6-12 5-8 8-11 7-7 7-12 9-10 7-5 3h-2v2l-12 9-7 5h-3l-1 3-6 5-4 5-10 7-8 6-16 15-16 16-6 5-5 6-5 2-2 5-7 10-6 7-7 6-6 10-5 5-10 13-4 8-6 8-5 5-9 13-3 5-8 8-2 8-9 14-3 7-10 17-4 7-3 7-2 2v8l-3 8-6 11-2 5-1 9-4 10-5 10-4 16-6 18-4 15-1 11-4 11-2 8-5 19v9l-3 17-1 6v9l-3 11-3 6-2 16h-1l1-19 2-21 5-35 8-40 8-31 9-29 9-25 12-29 10-22 8-16 11-20 14-23 10-15 13-19 10-13 12-16 9-11 12-14 12-13 10-10 4-5 8-7 4-5 8-7 9-9 11-9 10-9 11-9 13-10 22-15 17-12 24-15 24-13 19-10z" fill="#E3FAFE"/>
<path transform="translate(1268,1386)" d="m0 0h303l17 1 4 10v3l-4 1-156 1h-82l-2 1v-3h-76l-1-4h-6l-2-1v-7z" fill="#3143B0"/>
<path transform="translate(428,1359)" d="m0 0 1 2h115l-1 12-4 27-6 1h-95l-6-2-4-34z" fill="#FB6D9A"/>
<path transform="translate(1264,1344)" d="m0 0 9 3-1 29-1 10-7 2-1 7 8 1 1 4-89 1 1-3 11-8 6-7 5-9v-7l-2-8h-16v-1l17-1 24-5 34-6z" fill="#C55693"/>
<path transform="translate(539,1087)" d="m0 0h5v4l-5 5-2 4 1 11 14 45 25 76 10 31 13 41 10 31 14 41 6 10 8 8 9 4v2l-30-1-21-1v-1l16-1 5-5-1-9-6-16-2-5v-4l-3 1v-9l-5-17-2-1-1-9h-2l-6-16-17-52-5-12-6-22-3-13-6-16-1-4-2-13-4-11-2-1-9-27-8-22-1-11 3-6 5-4 5-2z" fill="#DAF3FD"/>
<path transform="translate(1273,1347)" d="m0 0h272v1h-198v37h80v1h-156l1-29z" fill="#B7BEFB"/>
<path transform="translate(1021,1244)" d="m0 0 7 6 10 10 11 9 7 5-1 6-12 35-3 7-20-2-26-4-19-4-2-1v-4l2-1h11l12 2-2-6-4-3 1-5 9-15 39 1v-3h-37l2-5 10-18z" fill="#FCFCFC"/>
<path transform="translate(734,1203)" d="m0 0h15l12 6 8 8 6 10 2 7v10l-2 8-6 8-6 3-12 1-9-3-10-7-7-10-4-10-1-4v-9l3-9 4-5z" fill="#FBFAFB"/>
<path transform="translate(1028,1064)" d="m0 0h2l-4 17-7 25-10 37-7 33-1 6v15l7 21 8 16 4 5v2h2l-3 9-8 15-7 12h37v3h-33l-6-1-2 5-8 14h-26v-1l17-1 1-22 4-36 5-35 5-31 7-31 12-41z" fill="#C55693"/>
<path transform="translate(971,955)" d="m0 0h71l3 3 2 6h-76l-85-1-206-1v-6z" fill="#BAC3FC"/>
<path transform="translate(680,875)" d="m0 0h341l1 8h-94l-248-1z" fill="#BBC4FC"/>
<path transform="translate(996,827)" d="m0 0h1v12l-1 4-316-1v-6l1-1h243l72-2z" fill="#B8BEFC"/>
<path transform="translate(293,1029)" d="m0 0h13l14 7 10 8 9 9 10 13 6 10 11 20 1 7h2l3 10v6l-2 1-4-3h-7l-4 3h-2v2l-6 3-2-1-5 1-4-12-2-5-2-7-6-7-8-6-2-4v-5l4-2 7 2h3l5 1 11 8-3-12h-2l-2-5h-2l-7-11-8-12v-2h-2l-3-5-3-2-9-3-1-1h-14l-2-1v-3z" fill="#1E3678"/>
<path transform="translate(1011,915)" d="m0 0h14l1 1v7h-47l-299-1v-6z" fill="#B8BFFB"/>
<path transform="translate(1086,533)" d="m0 0h1l1 18v136h-44v-1l11-2 10-4 7-5 3-11 1-10-2-16-2-4v-8l-4-6 4-3-1-8-1-6h2v-2h2v-17l2-6v-12l5-17 2-10h2z" fill="#CEE6FC"/>
<path transform="translate(909,1114)" d="m0 0h44l-1 8-9 25-7 18-8 21-2 4-12-36-10-32-1-7z" fill="#FCFBFC"/>
<path transform="translate(1102,475)" d="m0 0h109l79 1v7l-1 3h-187z" fill="#1E3678"/>
<path transform="translate(306,1078)" d="m0 0 3 1 8 18 21 45 7 16 15 30v7l-5 15-4-4-4-6-4-4-3-6 1-4h-2l-10-24-5-19-3-7-4-7-6-7-1-4-4-6-3-13v-13l2-7z" fill="#458BD7"/>
<path transform="translate(1316,426)" d="m0 0h105v16l-1 1h-104l-1-1v-14z" fill="#FDFDFD"/>
<path transform="translate(856,1126)" d="m0 0h3l2 6 6 2 2 4-9 3-2 6-8 9h-2l1-5 3-7-1 1-2 5-5 4h-2l-1 4-1 3h-3v2h-2v2l-4-1-2-1 1 3 5 2-1 4-5 1-1-5-6-3-1 6 8 6-2 3h-2v2h-2v2l-4 3-3 5-3 1v2l-5 3-1 2h-2v2h-2l-1 3-6-2-3-5-4-1 1 4 4 1 2 6-3 5-4-1-4-5-2 8v5l1 4h-7l-7-9-2-6h3v-2l5-2h4l1-6 7-6h2l2-4 7-6 7-8 4-5 6-5 7-8 8-7h2v-2l5-2 2-4 7-6 5-5 3-1z" fill="#1D3576"/>
<path transform="translate(1140,524)" d="m0 0h269v6l-205 1h-64l-1-1v-5z" fill="#BAC2FC"/>
<path transform="translate(283,1116)" d="m0 0 5 5 11 23 13 20 11 14 11 13 15 16 1 3 4 2v26l1 9 5 16v3l3 1-10 2-4 2-14-1-8-1v-1l15-2h6l1-6-5-15-1-5-1-17-4-10-9-12-9-10-3-3v-2h-2l-14-21-9-14-7-17-3-12v-5z" fill="#E0F7FE"/>
<path transform="translate(1140,558)" d="m0 0h269v6h-269z" fill="#75A4DD"/>
<path transform="translate(1698,1402)" d="m0 0h29l9 4 7 7 4 9v12l-5 10-8 7-4 1h-96l4-2 5-6 5-1 25 3h14l13-2 17-3 5-1v-2h3v-8l-1-5 2-2 1-4h2l1-4 2-1 2-5h-2v-2l-9-1-1 2-4-1 1-1-14-2-6 1z" fill="#0D2668"/>
<path transform="translate(674,1305)" d="m0 0h4l1 5 6 4 5 2v3l-8 5-5 5-7 6-7 2-1 3h-2v2h-2l-1 5-4 8-5 5h-2l-2 5h-2l-2 4-5 4-7 3h-2l-2 2-6-16 1-3h4l5-4 2-3h2l2-4 9-11 11-11h2l1-3 9-7 6-8z" fill="#1D3576"/>
<path transform="translate(301,1319)" d="m0 0h4l4 6 12 36 9 29v3l-6-2-8-7-9-9-9-11-8-9-9-14-7-15 1-2 6 5 3 5 6 5h7l2-9 1-9z" fill="#FAFBFC"/>
<path transform="translate(990,1297)" d="m0 0 8 6v5l-12-1h-16l-9-2 5 16 9 30 2 7 104 1 66 1h46l-1 2-48 1-13 3h-25l-15-2-13-1h-47l-9 2-13 1h-25l-7-2v-2l-3-1-7-14-2-9-3-13-2-7-1-9-2-2v-7l-1-2z" fill="#091A58"/>
<path transform="translate(1373,1235)" d="m0 0 2 3 4 18 9 49 3 14 6 11 2 3v3h-47l-2-2v-3l-12-13-10-9-1-1-2-46-1-14v-10h1l1 5 1 16 4 6v13h-1l-1 29 5 2 6 4 2 5 3 1 3 3v2l7 2 10 3 13-1 5-2 1-5-5-15-3-10-2-17-2-7-1-14-1-5v-11z" fill="#DEF5FE"/>
<path transform="translate(932,469)" d="m0 0h19l52 4 38 4 31 6-1 2-14 3h-12l-7-2-21-1-20-2-6-2-11-1-20-1-14-2h-40l-15 1h-17v-1l33-5 5-1v-1z" fill="#E2F9FE"/>
<path transform="translate(1056,1283)" d="m0 0h2v2l9 3 4 4 11 9 15 11 11 8-4 2h-57l-3-1 1-7 3-7 2-6 5-17z" fill="#FC6E9B"/>
<path transform="translate(1139,634)" d="m0 0h273v4l-23 1h-209l-41-1z" fill="#C0CFFB"/>
<path transform="translate(246,1208)" d="m0 0 3 1 1 7 1 3v8h2l2 12 3 9 4 13 3 12 5 17 5 13 5 9 2 2h4l6-7 3-5h6l6 18-1 2-1-3h-4l-1 11-2 9-1 1h-7l-9-8-3-5-5-3-8-24-13-52-4-21-2-14z" fill="#E3F9FE"/>
<path transform="translate(412,1135)" d="m0 0 5 1 6 5 4 11 13 44 9 34h23v1l-7 1h-17l-7-2 1-4h-2l-1-4-4-2 1-2-5-6v7l-2-4-10-36-8-29-1-11z" fill="#C55693"/>
<path transform="translate(1373,782)" d="m0 0h38l1 1v5h-246l-14-1-1 3-5-6 2-1h204z" fill="#CFE7FC"/>
<path transform="translate(1138,753)" d="m0 0h274l-1 6-156-1-116-1z" fill="#AFC1F5"/>
<path transform="translate(299,1023)" d="m0 0 16 2 20 11 10 9 3 4 2-1 8 13 2 5v2l4 2v3h-2l4 10 5 10 6 7 4 10 1 4v16l3 1v11l-3 3h-2l-2-6-3-16-4-10-2-10h-2l-3-9-7-12-3-6-9-14-11-13-7-7-10-7-13-6-5-2-1-2z" fill="#DAF2FD"/>
<path transform="translate(674,1090)" d="m0 0h210l8 5 6 8 6 15 7 24v2h-2l-4-4-3-12-3-7v-4h-2l-4-10-6-8-2-2-13-3h-20l-15 2h-83l-26-1h-6l-8-2-41-1z" fill="#071753"/>
<path transform="translate(1138,693)" d="m0 0h273l1 4-1 1h-273z" fill="#BBC3FC"/>
<path transform="translate(677,1078)" d="m0 0h290v3l-2 1h-287z" fill="#94B0EB"/>
<path transform="translate(391,867)" d="m0 0h10l8 4 8 9 4 9 3 10 1 8v13l-3 14-6 17-7 10-9 9-8 4-1 115v68l-3 3-1-19v-168l9-6 1-4h2v-2l8-4 3-7h2l3-9 4-13 1-11v-13l-2-11-6-12-6-7-10-5h-5z" fill="#21529C"/>
<path transform="translate(1138,723)" d="m0 0h273l1 4-23 1h-251z" fill="#BCC5FC"/>
<path transform="translate(1178,853)" d="m0 0 2 1 6 24 7 21 8 16 9 11 9 10 11 10 11 9 11 10 8 7 15 14 8 8 13 17 8 13 6 14v3l-5-2-2-6-7-12-3-4v-2h-2l-6-10-3-3v-2l-3-1-9-11-1-4-3-1-6-7h-4v-2l-4-2-10-9-11-7-5-5v-2l-4-2-8-7-9-11-3-3-8-12-1-3-2-1-3-8-6-19-2-4-2-10-1-2v-11z" fill="#081956"/>
<path transform="translate(1576,1336)" d="m0 0h3l3 10-1 1h-117l-7-1v-1l20-1-1-6 1-1z" fill="#17488F"/>
<path transform="translate(1718,1053)" d="m0 0h87l1 1-1 7-2 1-13 1h-86l-6-2-1-3 1-4z" fill="#CFE7FC"/>
<path transform="translate(879,469)" d="m0 0h6l2 1-1 3-13 3-10 1-14 1-6 2h-34v2l-3 2-17 2-11 3h-9l-9 4-8-1-1 3-6 2h-5l-2-3h-2l-2 7-5 1-4 1-13 3-2-5-2-1 34-10 38-9 28-5 34-4z" fill="#E2FAFE"/>
<path transform="translate(1220,931)" d="m0 0 1 2 4 2 11 7 14 12 8 7 12 11 10 8v2l4 2 7 8 8 12 4 5 4 8 7 13 4 12 2 10-3 6h-2l-4-16-7-15-6-11-9-13-11-13-12-12-8-7-11-10-11-9-5-5-3-5-9-9z" fill="#DCF4FD"/>
<path transform="translate(681,917)" d="m0 0h254l4 2v1l-8 1h-250z" fill="#75A4DD"/>
<path transform="translate(679,1008)" d="m0 0h358v2l-59 1h-264l-35-1z" fill="#699CE0"/>
<path transform="translate(1348,1335)" d="m0 0 44 1v1l-42 1 4 3-3 2-1 3-4 1h-75l-7-3v-7l7-1z" fill="#3448B4"/>
<path transform="translate(1166,813)" d="m0 0h246l-1 4h-238l-6-1z" fill="#A9C0F2"/>
<path transform="translate(681,835)" d="m0 0h149l62 1v1l-92 1-33 1 37 1 86 1v1h-210v-6z" fill="#BBC4FC"/>
<path transform="translate(1304,417)" d="m0 0h127l-4 1v2l-7 4-2 1h-103l-1 12h-1l-1-6h-2v-3h-3l-1 8h-1z" fill="#C55693"/>
<path transform="translate(1142,593)" d="m0 0 17 1 4-1h204l6 2v1l-8 1h-223z" fill="#74A3DC"/>
<path transform="translate(976,1043)" d="m0 0h8l-2 3-47 1h-212l-45-1v-2z" fill="#639BDA"/>
<path transform="translate(259,1403)" d="m0 0h43l2 2-10 2-4-1v2l-10 2-3 2-7 1-2 6h-2v-2h-2l-1-1-3-1v2h-3l-1 3h-2l-1 11h-2v5l1 2h-2v2l4 2v2l3 1 1 2 2-1h15v3l-4 3h-12l-6-3-7-8-4-10v-9l4-10 8-7z" fill="#0F286A"/>
<path transform="translate(428,1359)" d="m0 0 3 4 3 26 2 6 15 3v-2h5l1 1h47v-1h19l5-2 5-12 3-1 4-8v-4l-2-1v-5h-100v-1l106-1-1 12-4 27-6 1h-95l-6-2-4-34z" fill="#C65693"/>
<path transform="translate(1102,475)" d="m0 0 38 1v3l-9 1 1 3h119l-1-2 4-1 3 3h4v-2l10-1 2 3 14 1 2 2h-187z" fill="#384DB7"/>
<path transform="translate(1569,862)" d="m0 0 5 1 6 5 5 7v2h2l5 8 2 14v7l-3 10-4 5h-2l-1 3-6 4-5 4-5 2-13 1-11-2-11-6-5-4-5-10v-5l3 4 4 5v2l4 2 11 5 5 1h9l9-2 8-5 7-8 3-9v-18l-6-12-8-7-4-3z" fill="#E3FAFE"/>
<path transform="translate(1140,558)" d="m0 0h269v6h-269zm70 1-36 1-7 2v1h240l1-4z" fill="#B6BDFB"/>
<path transform="translate(725,957)" d="m0 0h96l77 1 3 2-7 1-165 1-32-1h-16v-3h28z" fill="#75A4DD"/>
<path transform="translate(1220,525)" d="m0 0h188l-1 4h-190l-17-1 3-2z" fill="#75A4DD"/>
<path transform="translate(1385,591)" d="m0 0h25v6l-1 1h-109v-1l67-1 4-1-4-1h-204l-9 1-12-1v2h34l56 1v1h-91l-1-1v-5z" fill="#B9C1FC"/>
<path transform="translate(1628,1168)" d="m0 0 5 2 19 38 4 10v17h-6l-3-8-9-21-11-23-3-7v-6z" fill="#0E296B"/>
<path transform="translate(743,877)" d="m0 0h157l19 2-4 2h-182l-11-1v-1z" fill="#75A4DD"/>
<path transform="translate(526,1083)" d="m0 0h1l-1 8-4 9-10 15-10 10-4 6v6l4 4 5 3 2 3-1 5-5-4-7-1-10-3-11-1v-4l8-6 7-8h2l2-4 10-14 4-5 5-2-1 8 4-6 4-7 5-9z" fill="#DAF2FD"/>
<path transform="translate(520,1007)" d="m0 0 2 1 4 13 1 11v13l-3 19-5 16-9 19-9 14-2 3h-2l-1-7 3-6 6-6h4l-1-6 5-1-1-7h2l1-10 2-7 1-3-2-1v-8l1-4-1-4 2-5 1-11-2-10 1-11z" fill="#1D3778"/>
<path transform="translate(417,1108)" d="m0 0 5 4 4 5h9l4-1 5 6-6 11-7 10-5 1-1-2-10-6-4-2 3-21z" fill="#2A82D2"/>
<path transform="translate(939,1147)" d="m0 0 3 1-3 9-11 29-2 4-12-36-1-5z" fill="#FAFAFC"/>
<path transform="translate(1028,1347)" d="m0 0 8 1 16 6 4 3 20 1v1h-97l4-4 29-4z" fill="#C55693"/>
<path transform="translate(678,1007)" d="m0 0h7v1h-6v2h358v-2h-89v-1h90l2 1-1 4-10 2-5-1-333-1-13-1z" fill="#C7D6FC"/>
<path transform="translate(680,875)" d="m0 0 219 1v1l-156 1-10 2 64 1v1h-117z" fill="#B8BEFC"/>
<path transform="translate(1180,635)" d="m0 0h183l8 1-2 2h-188l-2-2z" fill="#75A4DD"/>
<path transform="translate(399,872)" d="m0 0 7 1 7 8 5 10 1 8v18h-12l-2-2v-14l5-6-5 2-2-3-4-19z" fill="#D4ECFD"/>
<path transform="translate(1408,664)" d="m0 0h3v2l-2 1h-270l1-2z" fill="#669CDB"/>
<path transform="translate(1262,1015)" d="m0 0 5 2 7 9 4 7 5 8 4 11 4 9 6 14 2 4 3 13 3 12h8l1-4h1v10l-5 19h-2l-14-48-11-28-10-21-10-14z" fill="#091A59"/>
<path transform="translate(1573,1141)" d="m0 0 4 2 8 18 7 15 5 13 8 16 7 18 4 9v4l-4-1-8-16-11-25-7-14-6-16-8-18z" fill="#1F3C81"/>
<path transform="translate(1729,1071)" d="m0 0h2l6 36 3 28 1 29v42h-1l-2-17-1-29-3-21-2-12-2-21v-15l-1-11z" fill="#E6FAFE"/>
<path transform="translate(921,1179)" d="m0 0h2l4 14 12 40 7 22 10 34-1 4-3-9-3-1-1-7-3-5-2-13h-2l-3-11-3-7-10-30-3-17-2-7z" fill="#081956"/>
<path transform="translate(1316,444)" d="m0 0h98v1l-35 1 2 3-5 2h-4l-31 2h-9v-1l-9-1h-12l-1-2h4z" fill="#C55693"/>
<path transform="translate(385,976)" d="m0 0h2l1 184-4 3h-3l-1-18 4-3v-139z" fill="#C1D3FA"/>
<path transform="translate(368,935)" d="m0 0 7 1v7l3 3 2 7v9l-3 6h-6l-5-5v-2h-2l-3-6-2-6v-12z" fill="#CBDCFC"/>
<path transform="translate(800,837)" d="m0 0h92l23 2v1l-23 1h-100l-53-1v-1l28-1z" fill="#75A4DD"/>
<path transform="translate(397,1243)" d="m0 0h2l6 22 6 24 1 13-1 5-2-3-1-6-5 2-3 1-2-1v-8l3-7 1-4-3-10-4-5-5-3 3-5h2l2-11z" fill="#1D3578"/>
<path transform="translate(1139,724)" d="m0 0 218 1v2h-219z" fill="#74A3DC"/>
<path transform="translate(1164,784)" d="m0 0h140l22 1v1l-12 1h-126l-22-1z" fill="#75A4DD"/>
<path transform="translate(357,907)" d="m0 0 9 1 6 3 2 8v13l-10 2h-7l-1-1v-22z" fill="#DAEFFE"/>
<path transform="translate(1139,694)" d="m0 0 224 1v1l-21 1h-202z" fill="#74A3DC"/>
<path transform="translate(1325,1274)" d="m0 0h1l1 7 1 27 7 7 8 7 8 9 1 3-4 2h-70v-1l58-1 5-1-2-3v-2l-4-3v-2l-5-2-4-2 1 3-3 5-4 1-1-4 4-8 2-5v-3z" fill="#CB5893"/>
<path transform="translate(1101,765)" d="m0 0h11l15 5 10 6 9 7 7 8 9 13 5 10-1 3-2-2h-2v-2l-3-1-7-12-6-7v-2l-4-2-3-2v-2l-4-1-2-3-3-1-5-5-2-4h-15l-1-2-9-1z" fill="#0A1B58"/>
<path transform="translate(1304,422)" d="m0 0h1l1 6 2-2v2h2v3l3-1 2 1 1 11 97 1v1l-97 1-2 4-1 1h12l8 1v1l8 1v1h-36l-1-1z" fill="#FC6E9B"/>
<path transform="translate(372,1124)" d="m0 0h3l3 7 2 11 1 11v13l-7 1-5-5-1-5v-9l-1-13h2v-3l2-2z" fill="#1F3879"/>
<path transform="translate(831,917)" d="m0 0h104l4 2v1l-8 1h-100z" fill="#75A4DD"/>
<path transform="translate(508,1190)" d="m0 0 3 2-1 6-6 12-7 11v6h12v1l-34 2-1-2 9-7 4-2 2-4 3-4h2l2-4 7-11z" fill="#DBF4FD"/>
<path transform="translate(1445,984)" d="m0 0h4v5l-9 8-1 4 5 2 4 3v8l-5-1-17-9-6-4 1-3 16-9z" fill="#3385D1"/>
<path transform="translate(362,887)" d="m0 0h2l-2 9-5 15v27l4 16 3 5v2h2l7 9 6 1-1 3-7-1-8-7-6-10-5-12-1-6v-22l2-7 6-18z" fill="#1F4D94"/>
<path transform="translate(1028,1064)" d="m0 0h2l-4 17-7 25-10 37-7 33-2 13-2 5-2-2 1-15 8-36 12-41z" fill="#C35592"/>
<path transform="translate(1643,710)" d="m0 0 9 3 6 4 9 9 8 11 4 7 1 6-4 2-5-4-7-11-9-10-7-8-5-7z" fill="#FDFDFD"/>
<path transform="translate(439,1192)" d="m0 0 3 3 3 12 3 11v3l4 1 2 2h11l9-3 5-3h3l1-2 3-1v-2l5-4 3-4h2l2-5 2-3h2l1-4 1 3-7 11-3 4h-2l-2 4-5 5-9 8-3 2-14 1h-10l-3-8-7-27z" fill="#1F377B"/>
<path transform="translate(705,501)" d="m0 0h2l-1 8-11 1-2 2-8 1-3 1v2l-10 4-7 1-4 3-6 2-4 2h-8l-2 2h-2v-4l23-10 30-11z" fill="#E3F9FE"/>
<path transform="translate(416,919)" d="m0 0h3v14l-7 17h-2l-2 5h-4l-1-1v-8l2-7 6 2-1-5-4-1-1-5 1-10z" fill="#D8ECFD"/>
<path transform="translate(494,989)" d="m0 0h12l8 5 4 5-2 12-1-2h-2l-3-5v-2l-3-1v-2l-5-2-5-1h-6l-5 3-10 4-10 8-4 4-2-1 11-11 4-5 16-8z" fill="#2C83D2"/>
<path transform="translate(1398,634)" d="m0 0h14v4l-23 1h-209l1-2h189l-7-1v-1z" fill="#B8BEFC"/>
<path transform="translate(1492,1291)" d="m0 0 3 1 1 5-3 7v10l-1 11 2 4-1 4-6 1-2-1v2h-10l1-4 6-10 5-15 3-13z" fill="#DCF3FE"/>
<path transform="translate(1200,1134)" d="m0 0 2 1 4 11 2 11 10 48 6 34v7l-2 1-2-3-6-38-7-35-6-31z" fill="#C55693"/>
<path transform="translate(1047,826)" d="m0 0 2 1-9 6-11 8-7 8-1 2-1 20-5-2-8-7-5-7-2-5 1-3v2h2l1 4 7-1 8-5 2-6 4-2h3v-2l4-2 4-4 8-2 1-2z" fill="#081956"/>
<path transform="translate(1261,975)" d="m0 0 5 2 17 17 13 17 8 13 6 14v3l-5-2-2-6-7-12-3-4v-2h-2l-6-10-3-3v-2l-3-1-9-11-1-4-3-1-5-5z" fill="#091B59"/>
<path transform="translate(1352,783)" d="m0 0h58l1 4h-92v-1l-15-1v-1z" fill="#B8BEFC"/>
<path transform="translate(1599,686)" d="m0 0 8 1 25 12 4 4v4l-6 1-23-10-9-6-1-4z" fill="#F488AE"/>
<path transform="translate(1385,591)" d="m0 0h25v6l-1 1h-109v-1l67-1 4-1-4-1v-2z" fill="#BCC5FC"/>
<path transform="translate(1475,980)" d="m0 0h142l25 1 5 2-2 1-16-1h-158z" fill="#C3D2FC"/>
<path transform="translate(273,1051)" d="m0 0h1v19l5 25 2 7v7l-4-1-7-15-2-10v-24l4-4z" fill="#DFF6FE"/>
<path transform="translate(403,553)" d="m0 0 7 1 1 1-1 7-8 18-4 4-6-2-1-4 7-17 3-6z" fill="#E9699A"/>
<path transform="translate(1685,1360)" d="m0 0 2 2v14l2 8h7l5-2v-2h2l2-5 1 2-5 13-3 5-4 2h-7l-5-4-1-6z" fill="#E2FAFE"/>
<path transform="translate(870,1078)" d="m0 0h97v2l-8 1h-102l-1-2z" fill="#75A4DD"/>
<path transform="translate(1310,1138)" d="m0 0 5 3 2 11 2 3v7l-1 5 4 10 1 12h-2l2 4 2 1 1 9-2 3v18l-2 1-4-37-7-43z" fill="#EDFBFE"/>
<path transform="translate(677,1078)" d="m0 0h193v1h-164v2h27v1h-55z" fill="#BAC2FC"/>
<path transform="translate(898,1008)" d="m0 0h139v2l-59 1h-51v-1l-29-1z" fill="#75A4DD"/>
<path transform="translate(409,1150)" d="m0 0h3l10 36 12 43v2h-11l4-6v-9l-3-9-2-10-2-5-4-16-3-10-3-4v-2h-2l-1-2-5-2 1-4z" fill="#213781"/>
<path transform="translate(391,867)" d="m0 0h10l8 4 8 9 4 9 3 10 1 8v13l-2 11h-2v2h-2l1-16v-13l-2-11-6-12-6-7-10-5h-5z" fill="#184387"/>
<path transform="translate(750,918)" d="m0 0h81v3h-90l-5-1v-1z" fill="#557AD9"/>
<path transform="translate(485,513)" d="m0 0h10v7l-8 3-15 3h-7l-1-6 5-3z" fill="#C55693"/>
<path transform="translate(1143,935)" d="m0 0 3 4 2 18h2l3 17 4 10 5 2v2h5l5 3 1 3h-8l-8-2-3-4-5-15-5-22-1-6z" fill="#091A59"/>
<path transform="translate(477,1143)" d="m0 0h9l10 3 6 4 5 5 2 4 1 9-7-6-2-3-3-1-4-5-5-1-5-2-6-2-2-4z" fill="#1E3678"/>
<path transform="translate(1157,826)" d="m0 0 1 2 2 1 1 5 3 3-1 5-3 1-2-1-3-6-2-1v-2h-2l2 8h-2v2l3 1 2 4v4l-4 1-5-5-1-4-5-3 6-8 5-3 2-3z" fill="#1E3576"/>
<path transform="translate(1185,1400)" d="m0 0h84l1 2h-2l-1 2h-11l-8-1-6 1-5-1-2 1-35-1h-15l-3-2z" fill="#182D80"/>
<path transform="translate(909,1114)" d="m0 0h44l-2 6-46-1-1 3-1-7z" fill="#C7DAFC"/>
<path transform="translate(374,945)" d="m0 0 4 1 2 7v9l-3 6h-6l-6-7 1-7 7-7z" fill="#D0E5FD"/>
<path transform="translate(976,1043)" d="m0 0h8l-2 3-47 1h-49v-1h9v-2z" fill="#75A4DD"/>
<path transform="translate(1613,809)" d="m0 0 5 5 9 12 9 13 12 19 10 16 5 9-1 2-7-8-7-14-7-8-8-13-6-10-3-6v-2h-2l-3-5v-2h-2l-4-6z" fill="#FCFCFD"/>
<path transform="translate(549,750)" d="m0 0 1 3-3 11v26l3 9 4 4 6 2h8l7-4 3-3v5l-5 4-5 3h-8l-7-3-5-5-5-15 1-19-1-9z" fill="#E3FAFE"/>
<path transform="translate(961,1305)" d="m0 0 14 1-2 1v4l11 2 1 3-6 4-12-1 2 5-1 4-3-7-4-13z" fill="#ED6798"/>
<path transform="translate(1349,1337)" d="m0 0h16l10 2-1 3-6-1-3 1-3-1 1 3h3l4 1h29l1 2h-54l4-1 1-5-2-2z" fill="#1A4592"/>
<path transform="translate(1148,783)" d="m0 0h125v1l-107 1 22 1v1h-36l-1 3-5-6z" fill="#B9C1FB"/>
<path transform="translate(627,688)" d="m0 0 4 1-3 2-1 4-1 25-1 102h-1l-1-38-1-16v-27l2-25 1-25z" fill="#E2FAFF"/>
<path transform="translate(1184,1359)" d="m0 0h20l3 8v7l-7 12-7 7-4 1 6-8 4-7 3-6 1-1 1-7h-2v-2l-9-1v-2l-3 1h-43v-1z" fill="#102265"/>
<path transform="translate(488,1122)" d="m0 0h4v3h-2l-2 4-8 8-6 4-2 3h-3l-2-3v-8l6-2h2l1-2 6-3 3-1z" fill="#1E3778"/>
<path transform="translate(912,1321)" d="m0 0 6 4 3 9 1 4-2 2-6-1-9-6 1-7 4-2v-2z" fill="#1E3576"/>
<path transform="translate(399,872)" d="m0 0 7 1 3 3v5l3 1-1 10-5 5-3-3-4-19z" fill="#DAEFFD"/>
<path transform="translate(1714,1054)" d="m0 0h20v1l7 1-4 3-13 1 1 2h-4l-2-2-1 1h-10l-6-1v-4l2-1z" fill="#B8BEFC"/>
<path transform="translate(680,956)" d="m0 0h63v1l-10 1-35 1-17-1v3l26-1 22 1v1h-49z" fill="#B8BEFC"/>
<path transform="translate(1315,424)" d="m0 0h103l1 2h-103l-1 2z" fill="#FC6E9B"/>
<path transform="translate(546,1090)" d="m0 0h23l40 1v1l-39 1-2 1h-18l-9 6h-3l-1 2v-5l5-6z" fill="#071956"/>
<path transform="translate(366,911)" d="m0 0 6 1v15l-2 3h-6l-3-5v-7l3-5z" fill="#FCFCFD"/>
<path transform="translate(1398,634)" d="m0 0h14v4l-23 1h-24l1-2h4l-7-1v-1z" fill="#B3BCF9"/>
<path transform="translate(1466,666)" d="m0 0 4 1 3 5v11l-1 9-3 3h-2l-1-3z" fill="#CEE6FC"/>
<path transform="translate(1316,1111)" d="m0 0h4l1 3-3 12-3 3-1 10-2 2-3-5v-7l4-15h2z" fill="#DBF3FD"/>
<path transform="translate(1054,833)" d="m0 0 4 2 12 16v2h2l7 9 9 5 1 2 11 5 2 4-10-4-11-7-10-9-11-14-6-9z" fill="#0A1B5B"/>
<path transform="translate(1324,1238)" d="m0 0h1l1 5 1 16 4 6v13h-1l-2 30h-1l-2-46-1-14z" fill="#EFFBFD"/>
<path transform="translate(410,899)" d="m0 0h6l2 2v11l-4 3-4 1-3-2v-13z" fill="#E6FAFE"/>
<path transform="translate(938,1293)" d="m0 0 5 1v2h2l2 4 5 3-1 5-2 2-4-1-8-6-2-3 1-5z" fill="#1E3576"/>
<path transform="translate(1075,998)" d="m0 0h4l-2 11-4 16-1-3-2-1 2-3-2-1 3-1v-6l2-3-1-4-12 2-5 3-7 2-6 2h-2v-2l18-7z" fill="#C95793"/>
<path transform="translate(418,893)" d="m0 0 2 4 1 7v13l-1 11h-1v-9l-3 1h-10v13l1 3h-2l-1-2v-38l7-2-5 7v14l1 1h9l3 1z" fill="#6998DE"/>
<path transform="translate(408,921)" d="m0 0h10v9l-3 9-1-2h-3v-2l-4-1v-12z" fill="#DEF6FE"/>
<path transform="translate(997,1302)" d="m0 0h40v4h-31l-7-1-1 3z" fill="#B8BFFC"/>
<path transform="translate(939,1147)" d="m0 0 3 1-2 4-5 2h-14l-5-1v5l-2-4-1-5z" fill="#C0CFFB"/>
<path transform="translate(929,1305)" d="m0 0 4 2 1 4 2-2 7 5-2 7-2 2-4-1-1-5-5-1-2-4z" fill="#1E3576"/>
<path transform="translate(1310,1138)" d="m0 0 5 3 2 11 2 3v7l-1 5 1 13 1 7v8h-1l-6-38-3-16z" fill="#EFFBFE"/>
<path transform="translate(706,627)" d="m0 0 2 2-3 7-5 5-5 3-7 1h-7l-5-3 1-4 5 1h11l8-4 4-5z" fill="#E2FAFE"/>
<path transform="translate(1575,974)" d="m0 0h30l10 2-3 2-11 1-28-1-2-3z" fill="#E2FAFF"/>
<path transform="translate(398,1268)" d="m0 0h2l4 8 3 16v6l-5 3-4-1v-8l3-7 1-4-3-10z" fill="#CBDFFA"/>
<path transform="translate(517,1082)" d="m0 0 2 3-1 7 5-5 2-1-1 4-6 9-4 8-3 2 2-9-5 3 1-4z" fill="#D4ECFC"/>
<path transform="translate(921,1315)" d="m0 0h5l4 10 3-1v4l-4 2-8-1v-5h3v-3l-6 1-3-1 1-4z" fill="#1E3576"/>
<path transform="translate(365,888)" d="m0 0h2l4 13v6l-11-2 2-12z" fill="#D0E6FC"/>
<path transform="translate(1522,709)" d="m0 0 8 6 11 11 6 5 7 8 12 12 5 7-4-2-17-17-4-5-16-14v-2h-2v-2h-2v-2h-2v-2h-2z" fill="#FDFDFD"/>
<path transform="translate(409,1150)" d="m0 0h3l8 29v2h-2l-5-15-3-4v-2h-2l-1-2-5-2 1-4z" fill="#1D357A"/>
<path transform="translate(363,937)" d="m0 0h8l1 4-3 3-4 9-3 1-2-3v-12z" fill="#FAFCFD"/>
<path transform="translate(1e3 1155)" d="m0 0 2 3-2 12-3 19-2 5-2-2 1-15 4-18z" fill="#A15099"/>
<path transform="translate(677,1078)" d="m0 0h13l16 1v2h27v1h-55z" fill="#B2BCF9"/>
<path transform="translate(1586,1154)" d="m0 0 3 1 8 16 2 7 1 4-3 1-2-7-5-2-2-8v-7h-2l-1-3z" fill="#E0F8FE"/>
<path transform="translate(1574,1309)" d="m0 0 4 4-1 1v18l-10 2-5-3 2-3 8-2 1-5v-6-3z" fill="#E4FAFE"/>
<path transform="translate(391,867)" d="m0 0h10l8 4 8 9 2 3v8h-2l-5-10-6-7-10-5h-5z" fill="#1C3A7C"/>
<path transform="translate(1668,735)" d="m0 0 5 2 5 5 2 8-4 2-5-4-4-7z" fill="#D56B9E"/>
<path transform="translate(1106,475)" d="m0 0h105v1l-41 1h-3l-5 2-3-2h-18l-35-1z" fill="#1A4693"/>
<path transform="translate(647,686)" d="m0 0h22l5 1h29l12 1v1h-83v-2z" fill="#E2FAFF"/>
<path transform="translate(242,1131)" d="m0 0 3 3v26l-2 12h-1l-1-17v-18z" fill="#E3FAFE"/>
<path transform="translate(943,469)" d="m0 0h8l7 3 9 1 7 2v1h-18l-12-2-6-2 4-2z" fill="#D8F0FE"/>
<path transform="translate(898,1334)" d="m0 0h3l1 2 3-2 1 5 4 8v3l-6-1-7-9z" fill="#1E3576"/>
<path transform="translate(409,1141)" d="m0 0h2v9l-8 3h-7l-2-3 1-4 10 1 2-4h2z" fill="#DEF4FD"/>
<path transform="translate(1653,995)" d="m0 0 27 1v3l-1 1-27 1z" fill="#16478C"/>
<path transform="translate(403,553)" d="m0 0 7 1 1 1-1 7-2 4h-4l-1-5-2 4-2-1-1-3 3-6z" fill="#EE72A0"/>
<path transform="translate(1e3 1277)" d="m0 0h37v3h-33l-4-1z" fill="#869DE2"/>
<path transform="translate(416,919)" d="m0 0h3v14l-7 17-2-4h2v-4l-2-1v-5l-4-1-1-5 1-10zm-8 2-1 1v12l4 1v2h3l1 2 3-9v-9z" fill="#ABC5F3"/>
<path transform="translate(407,1276)" d="m0 0 2 4 3 16-1 11-2-3-3-12-1-8z" fill="#23559B"/>
<path transform="translate(1573,1141)" d="m0 0 4 2 2 4 2 11 3 9-1 3-6-12-5-12z" fill="#122E71"/>
<path transform="translate(1054,1284)" d="m0 0 1 4-5 17 1 2-3 1-4 13h-2v-6l10-30z" fill="#CD5994"/>
<path transform="translate(1071,937)" d="m0 0h7l-1 4-9 4-6-1-5-3v-2z" fill="#FBFCFD"/>
<path transform="translate(1074,891)" d="m0 0h9l2 1-1 7-3 2-5-1-3-4z" fill="#071855"/>
<path transform="translate(485,1219)" d="m0 0h3v5l-4 3h25v1l-34 2-1-2 9-7z" fill="#FCFCFD"/>
<path transform="translate(1034,895)" d="m0 0 7 1 1 1v6l-2 3h-5l-4-6 1-4z" fill="#081956"/>
<path transform="translate(446,1029)" d="m0 0 2 1-2 5-3 5-11 22-1 4h-3l3-9 8-16z" fill="#5A82D9"/>
<path transform="translate(368,973)" d="m0 0 12 3 3 1-1 5-6 1-6-3-3-3z" fill="#E2FAFF"/>
<path transform="translate(1049,780)" d="m0 0h8v3l-26 3-4 1-1-2 1-2 6-2z" fill="#101D5B"/>
<path transform="translate(1320,1068)" d="m0 0 3 2 1 22-4 1-1-3v-12z" fill="#E1F9FE"/>
<path transform="translate(374,948)" d="m0 0h3l2 3v8l-2 1-7-1h-2l-1-4 4-2 2-4z" fill="#FCFCFD"/>
<path transform="translate(910,1115)" d="m0 0h41l-3 3-32-1-2 1h-6l-1-2z" fill="#75A4DD"/>
<path transform="translate(1445,984)" d="m0 0h4v5l-7 6-7-2 1-3 5-4z" fill="#2359A1"/>
<path transform="translate(1516,866)" d="m0 0 3 1v4l-9 9h-4l1-7 5-4h2v-2z" fill="#CEE6FC"/>
<path transform="translate(357,907)" d="m0 0h5l-3 1v22l2 1 9 1v1l-13 1-1-1v-22z" fill="#B7CAF7"/>
<path transform="translate(983,475)" d="m0 0 9 1 5 2 15 1 14 2-3 2-19-1-9-2-9-3z" fill="#D8F0FE"/>
<path transform="translate(966,1311)" d="m0 0h9l9 2v2l-9 3-7-1v-2l-3-1z" fill="#C85793"/>
<path transform="translate(487,513)" d="m0 0h8v7l-4 2h-5l2-1v-3l-2 2-4-1v-2l-3-1 5-1v3h2z" fill="#D15E97"/>
<path transform="translate(543,1226)" d="m0 0h8v9l-2 7h-1v-8l-4-2-4-3-4-2z" fill="#CB5893"/>
<path transform="translate(366,871)" d="m0 0 5 1-1 5-5 6-4-1-1-4 4-6z" fill="#DFF6FE"/>
<path transform="translate(1133,848)" d="m0 0 5 1 5 5 1 4-2 2h-3v-2l-5-2-2-4z" fill="#1D3475"/>
<path transform="translate(1614,694)" d="m0 0 7 2 1 3 1-2 10 5 2 4h-4l-1 2-1-3-8-3-4-4-3-2z" fill="#D05C94"/>
<path transform="translate(1466,662)" d="m0 0 3 1 5 6 10 8-4 1-1-3-3-1v-2l-4-2-3-3-3-1v33h-1v-36z" fill="#E4F9FE"/>
<path transform="translate(1487,1226)" d="m0 0 5 1-1 4-2 1h-22v-1l8-1v-2l7-1-2 1v2h5l1-2-3-1z" fill="#E1F9FE"/>
<path transform="translate(668,613)" d="m0 0 1 3v9l4 8-1 2-5-1-2-4-1-10 3-6z" fill="#E4FAFE"/>
<path transform="translate(1154,868)" d="m0 0 5 2 3 5 1 14-4 8-2-1 2-7v-11l-4-8z" fill="#0B1D5A"/>
<path transform="translate(384,1142)" d="m0 0 1 2-1 2h-3l1 5 3-2 2 7v5l-3 2h-3l-1-18z" fill="#C2DAF8"/>
<path transform="translate(1210,924)" d="m0 0 7 6 14 14-1 3-17-16-4-6z" fill="#BFDAF6"/>
<path transform="translate(549,750)" d="m0 0 1 3-3 11-1 19h-2v-15l-1-9z" fill="#EAFAFE"/>
<path transform="translate(526,1013)" d="m0 0 3 4 2 7-1 14-2 3-1-13-2-7v-7z" fill="#DEF5FE"/>
<path transform="translate(270,1446)" d="m0 0h5v3l-4 3h-10l-4-3 2-2z" fill="#0D2668"/>
<path transform="translate(367,1259)" d="m0 0 5 1 4 3-9 3h-7v-5z" fill="#214082"/>
<path transform="translate(485,513)" d="m0 0h2l-1 5h-2l-1-2v3h3l2-2 1 2-2 4-10 1 4-3-2-1-2 2-3-2 3-5z" fill="#FC709C"/>
<path transform="translate(429,1157)" d="m0 0 2 1 4 14 5 17v2h-2l-6-19-3-10z" fill="#223988"/>
<path transform="translate(1007,1137)" d="m0 0h3l-2 11-3 10h-3l1-8 3-12z" fill="#AE5294"/>
<path transform="translate(1134,872)" d="m0 0h1v6l-3 3h-11l5-6z" fill="#061652"/>
<path transform="translate(428,1217)" d="m0 0h2l4 12v2h-11l4-6z" fill="#1D3479"/>
<path transform="translate(402,969)" d="m0 0 2 3-2 5-4 3-6 1 1-5 4-4z" fill="#E1F9FE"/>
<path transform="translate(363,959)" d="m0 0 1 2h2l7 9 6 1-1 3-7-1-8-7z" fill="#285AA2"/>
<path transform="translate(356,1077)" d="m0 0h3l7 14 2 3v9l-2-3-3-7-7-14z" fill="#BDD6F7"/>
<path transform="translate(1218,999)" d="m0 0h13l9 4 4 3-9-1-15-3-2-1z" fill="#0B1C5E"/>
<path transform="translate(1653,994)" d="m0 0h12l16 1 2 3-2 3h-27v-1l25-1 1-2-26-1z" fill="#6089DA"/>
<path transform="translate(370,932)" d="m0 0h4l1 4-16 1v9l-2-4-1-9h8z" fill="#5393D8"/>
<path transform="translate(1263,1388)" d="m0 0h10l1 3h-2l-1 4h-8z" fill="#1B3275"/>
<path transform="translate(404,1265)" d="m0 0h1l2 7-1 12-2-1-2-9-2-6-4-1 4-1h3z" fill="#20468A"/>
<path transform="translate(1697,992)" d="m0 0 5 4 2 7 3 7 2 13-2 3-3-16-4-10-3-6z" fill="#E2FAFF"/>
<path transform="translate(1019,787)" d="m0 0 4 1-3 3-11 9-4 4-1-2 8-10z" fill="#141D5A"/>
<path transform="translate(409,877)" d="m0 0 4 4 5 10v2l-7 2-2-2 2-5v-6l-2-1z" fill="#BCD4F7"/>
<path transform="translate(965,1314)" d="m0 0 3 1v2h7l10-2-5 4-3 1-10-1 2 5-1 4-3-7z" fill="#F76D99"/>
<path transform="translate(400,1286)" d="m0 0h2l1 2 1 11-4 2-2-1v-8z" fill="#304D98"/>
<path transform="translate(966,1086)" d="m0 0 1 4-9 21-2 3 1-8 7-18z" fill="#CE5A94"/>
<path transform="translate(470 1e3)" d="m0 0 2 1-11 11-2 5-9 8-2-1 11-13z" fill="#5180D8"/>
<path transform="translate(409,925)" d="m0 0 5 1 1 3-2 5-4 1-2-1v-7z" fill="#FCFCFD"/>
<path transform="translate(1205,916)" d="m0 0 5 2 5 5 2 5 2 4-7-6-5-2-2-6z" fill="#DCF4FD"/>
<path transform="translate(1317,1170)" d="m0 0 3 1 2 9 1 9h-2l-1 3z" fill="#E2FAFF"/>
<path transform="translate(999,1303)" d="m0 0h38v3l-38-2z" fill="#77A4DE"/>
<path transform="translate(954,1117)" d="m0 0 1 3-7 17-3 10h-1l1-9 7-19h2z" fill="#D25D94"/>
<path transform="translate(428,672)" d="m0 0 2 1-7 8-15 16h-3l12-13 10-10z" fill="#FDFDFD"/>
<path transform="translate(1577,1338)" d="m0 0 3 1v7l-10-2 1-4z" fill="#1D3677"/>
<path transform="translate(510,988)" d="m0 0h5l5 5v5l-5-2-5-4-1-3z" fill="#DFF6FE"/>
<path transform="translate(1580,768)" d="m0 0 5 5 12 14v2l-4-2-1-3h-2v-2h-2v-2h-2l-1-4h-2l-3-5z" fill="#FDFDFD"/>
<path transform="translate(1090,767)" d="m0 0h7l-2 4h-11v2h-2v2l-4-1 1-3z" fill="#151E5B"/>
<path transform="translate(1492,1291)" d="m0 0 3 1 1 5-3 7-3-1v-10z" fill="#DFF6FE"/>
<path transform="translate(1364,1343)" d="m0 0 6 2h29l1 2h-38l2-1z" fill="#16488E"/>
<path transform="translate(357,947)" d="m0 0 1 2h2l2 6 1 1 1 9-5-5-2-4z" fill="#1D3D80"/>
<path transform="translate(932,1149)" d="m0 0h7v3h-23v-2z" fill="#75A4DD"/>
<path transform="translate(1306,1123)" d="m0 0 2 3 4 19v8h-1l-3-13-1-3-1-10z" fill="#CD5994"/>
<path transform="translate(469,517)" d="m0 0 5 1-1 2h-5l2 3 6 1-4 2h-7l-1-6z" fill="#F874A0"/>
<path transform="translate(1258,1400)" d="m0 0h11l1 2h-2l-1 2h-11l-5-1v-2z" fill="#0E2768"/>
<path transform="translate(1063 1e3)" d="m0 0 2 1-8 5-7 2-6 2h-2v-2l18-7z" fill="#D45C95"/>
<path transform="translate(1445,994)" d="m0 0 4 4-2 4-5 1-2-2 1-4z" fill="#DEF5FE"/>
<path transform="translate(996,827)" d="m0 0h1v12l-1 4-4-1v-9h4z" fill="#C0DBF7"/>
<path transform="translate(1668,738)" d="m0 0 8 10h4l-2 4-5-2-6-9z" fill="#FC8CAA"/>
<path transform="translate(410,895)" d="m0 0 2 1-4 5v13l4 3h-5l-2-2v-14z" fill="#C4D3FC"/>
<path transform="translate(998,1177)" d="m0 0 3 2-1 10-2 5-2-2 1-14z" fill="#974D90"/>
<path transform="translate(1681,1387)" d="m0 0 1 3h2l3 3 8 1 4-1-3 3-2 1h-7l-5-4z" fill="#FDFDFD"/>
<path transform="translate(544,1359)" d="m0 0 2 1v9h2l-2 4-2 6h-2l1-13z" fill="#E9FAFE"/>
<path transform="translate(1314,1063)" d="m0 0h2v15h-2l-2-4v-7z" fill="#061652"/>
<path transform="translate(1720,1411)" d="m0 0 1 3-1 5h-2l-1 3-3-1v2l-5 4v-4l3-1v-2l5-1 1-7z" fill="#0C2567"/>
<path transform="translate(541,1361)" d="m0 0h3l-1 12-2-1-1-3-2-1v-6z" fill="#D05B94"/>
<path transform="translate(1193,1359)" d="m0 0h11l1 7-3-1v-2l-9-1z" fill="#0C1E5D"/>
<path transform="translate(739,1260)" d="m0 0 5 1 7 2 10 1-3 2h-8l-12-4z" fill="#081A58"/>
<path transform="translate(978,1058)" d="m0 0 1 3-5 11-4 9-1-2 3-9z" fill="#D25D94"/>
<path transform="translate(370,946)" d="m0 0h2l-1 4-5 6-1 5-2-2-3-5 1-3 1 3 6-5z" fill="#86A8E6"/>
<path transform="translate(541,1379)" d="m0 0h1l1 10-1 8h6v1h-9l1-12z" fill="#EDFBFE"/>
<path transform="translate(1573,1187)" d="m0 0 3 3v8l-2 5-3-3z" fill="#E2F8FE"/>
<path transform="translate(1726,1075)" d="m0 0 2 2 1 15 1 4-2 4h-1l-2-19z" fill="#E2FAFF"/>
<path transform="translate(389,962)" d="m0 0 6 1 1 5-6 1-2-5z" fill="#CDE1FC"/>
<path transform="translate(722,1239)" d="m0 0 3 3 6 9 1 3 3 1-4 1v-2h-2v-2h-2l-2-5-3-5z" fill="#14205F"/>
<path transform="translate(1616,1233)" d="m0 0h13l7 1-2 2h-18z" fill="#C6DEFA"/>
<path transform="translate(1308,1041)" d="m0 0 4 1 1 5v7l-4-4z" fill="#0C215F"/>
<path transform="translate(1692,1371)" d="m0 0h2v2l4-1-3 9-3 2-1-5z" fill="#E2FAFF"/>
<path transform="translate(1637,1180)" d="m0 0 3 4 3 6-1 4-5-6-2-6h2z" fill="#0C2769"/>
<path transform="translate(1570,1201)" d="m0 0 2 1v6l-7 6-3-1 6-7z" fill="#E3FAFE"/>
<path transform="translate(418,1181)" d="m0 0 3 1 4 16-3-1-2-5z" fill="#1F377F"/>
<path transform="translate(359,908)" d="m0 0h7l3 2-8 1-2 18h-1v-10z" fill="#D5EBFD"/>
<path transform="translate(360,898)" d="m0 0 1 4-1 3 8 1 3 1v3l-13-3z" fill="#6895DC"/>
<path transform="translate(391,867)" d="m0 0h10l8 4-3 1-6-1-6-2h-3z" fill="#18478E"/>
<path transform="translate(1076,1007)" d="m0 0 1 2-4 16-1-3-2-1 2-3-2-1 3-1v-6z" fill="#C55693"/>
<path transform="translate(419,886)" d="m0 0 2 3 2 5v5h-1l-1 5h-1l-2-13z" fill="#16478D"/>
<path transform="translate(1104,877)" d="m0 0 24 4v1h-11l-13-3z" fill="#102164"/>
<path transform="translate(708,617)" d="m0 0h3l1 12-2 2-1-7-2 3v-8z" fill="#E1F9FE"/>
<path transform="translate(1142,593)" d="m0 0 16 1 1 2-15 1-3-1z" fill="#75A4DD"/>
<path transform="translate(1475,980)" d="m0 0 13 1 1 2h-18z" fill="#C3D3FC"/>
<path transform="translate(379,953)" d="m0 0h1v9l-2 4-1-2h-3l-1-5h5z" fill="#C3D1FC"/>
<path transform="translate(439,1192)" d="m0 0 3 3 3 12-1 5-2-4-3-12z" fill="#223886"/>
<path transform="translate(1728,1078)" d="m0 0 2 2 1 18h-2l-1-6z" fill="#D8F0FE"/>
<path transform="translate(1161,881)" d="m0 0 2 3-1 8-3 5-2-1 3-10z" fill="#081956"/>
<path transform="translate(582,760)" d="m0 0 3 4 1 13-3-3-1-5z" fill="#E2FAFF"/>
<path transform="translate(916,1116)" d="m0 0 27 1v1l-27 1-2-2z" fill="#B8BEFC"/>
<path transform="translate(1039,1008)" d="m0 0 1 2-1 2-10 2-11-2v-1l19-1z" fill="#DCF3FD"/>
<path transform="translate(1364,1337)" d="m0 0 9 1 2 2-1 2-6-1-3 1-3-3z" fill="#16488E"/>
<path transform="translate(407,1292)" d="m0 0 5 4-1 11-2-3-2-6z" fill="#344AB2"/>
<path transform="translate(361,910)" d="m0 0h10l1 2h-6l-3 3-1 3h-2v-7z" fill="#DEF5FE"/>
<path transform="translate(581,775)" d="m0 0 1 3h2l1 5-4 7h-1z" fill="#E4FAFE"/>
<path transform="translate(1264,1337)" d="m0 0h6l1 2-2 4-3 1-2-2z" fill="#172E71"/>
<path transform="translate(917,1169)" d="m0 0h3l1 9-4-1-1-7z" fill="#0A1C5B"/>
<path transform="translate(446,1029)" d="m0 0 2 1-2 5-3 5-2 3-3-1z" fill="#5B86D9"/>
<path transform="translate(480,624)" d="m0 0v3l-8 8-3 2-3-1z" fill="#F9FCFD"/>
<path transform="translate(587,1296)" d="m0 0h2l4 12-1 4-2-3-3-9z" fill="#DCF4FE"/>
<path transform="translate(1607,1226)" d="m0 0 3 4 2 6-7-2z" fill="#B1C8F5"/>
<path transform="translate(1588,1170)" d="m0 0 3 4 5 11-1 2-3-2-1-8h-2z" fill="#2A59A4"/>
<path transform="translate(1579,1150)" d="m0 0 3 4 5 11h-3l-4-7z" fill="#21468C"/>
<path transform="translate(418,899)" d="m0 0h1v18l-8-1 6-4z" fill="#CFE6FC"/>
<path transform="translate(1579,1156)" d="m0 0 3 3 2 11-3-3-3-7z" fill="#0F2B6E"/>
<path transform="translate(517,1082)" d="m0 0 2 3-1 7-6 3 2-6z" fill="#B8D0F5"/>
<path transform="translate(528,1049)" d="m0 0 2 1 1 5-4 5-1-5z" fill="#E1F9FE"/>
<path transform="translate(378,951)" d="m0 0h1v8l-2 1-7-1h-2l-1-4 2-1v3l9-1z" fill="#E0F8FE"/>
<path transform="translate(419,884)" d="m0 0 3 1 3 13v9h-1l-3-16z" fill="#91ADEB"/>
<path transform="translate(356,933)" d="m0 0 5 1v3h-2v9l-2-4z" fill="#73A1E0"/>
<path transform="translate(1145,903)" d="m0 0h4l-1 3-4 2h-4v-4z" fill="#081955"/>
<path transform="translate(415,886)" d="m0 0 2 3 1 4-7 2-2-2 5-4z" fill="#A5B4F4"/>
<path transform="translate(408,963)" d="m0 0 3 1-1 6-2 2v-3h-2l-1-3z" fill="#E2FAFF"/>
<path transform="translate(400,1286)" d="m0 0h1v9l-1 5h-2v-8z" fill="#91B1E9"/>
<path transform="translate(1495,1272)" d="m0 0 4 2v5l-3 2-1-1z" fill="#E2FAFF"/>
<path transform="translate(1633,1183)" d="m0 0 3 1 3 6v4h-3l-2-6z" fill="#1E3576"/>
<path transform="translate(435,1176)" d="m0 0 2 2 3 13h-2l-3-9z" fill="#213781"/>
<path transform="translate(1006,1148)" d="m0 0 1 3-2 7h-3l1-8z" fill="#BA5494"/>
<path transform="translate(939,1147)" d="m0 0 3 1-2 4-1-3h-18v-1z" fill="#CFE4FC"/>
<path transform="translate(1283,995)" d="m0 0 4 1 5 6v3l2 1h-3l-8-10z" fill="#BED6F7"/>
<path transform="translate(1269,978)" d="m0 0 7 6 3 4h-3l-8-8z" fill="#D0E2FD"/>
<path transform="translate(360,947)" d="m0 0 5 1 1 4-4 2-2-3z" fill="#DCF3FE"/>
<path transform="translate(402,886)" d="m0 0 2 2v4h6l-2 4-3 1-2-3z" fill="#C5D4FC"/>
<path transform="translate(405,1287)" d="m0 0h1l1 11h-4l1-7z" fill="#ABC0F3"/>
<path transform="translate(1698,1236)" d="m0 0h8v9l-2 1v-7l-6-2z" fill="#D05B94"/>
<path transform="translate(485,1219)" d="m0 0 2 1-6 7-6 3-1-2 9-7z" fill="#CEE0FA"/>
<path transform="translate(1483,1338)" d="m0 0 2 2v3l-5 1-3-5 6 1z" fill="#2F3FAE"/>
<path transform="translate(354,1251)" d="m0 0 1 2h2l1 9-3-2z" fill="#E0EAF9"/>
<path transform="translate(503,1193)" d="m0 0 1 3-6 9-2-2 4-6h2z" fill="#1B397C"/>
<path transform="translate(412,916)" d="m0 0 5 1 1 2h-12v-2z" fill="#426DBD"/>
<path transform="translate(999,1305)" d="m0 0 16 1v1l-16 1z" fill="#DCF4FE"/>
<path transform="translate(1221,1236)" d="m0 0 1 3h2v7l-2 1-2-5z" fill="#8B4D9D"/>
<path transform="translate(1323,1209)" d="m0 0 2 4 1 7-3 2z" fill="#E2FAFF"/>
<path transform="translate(1583,1158)" d="m0 0 5 1 1 11-2-2z" fill="#C6DEF9"/>
<path transform="translate(406,1131)" d="m0 0 5 1 1 4-5 1-1-1z" fill="#E0F7FE"/>
<path transform="translate(510,1090)" d="m0 0h3l-1 5-3 4-1-8z" fill="#1C387A"/>
</svg>
