<svg xmlns="http://www.w3.org/2000/svg" enable-background="new 0 0 450 450" viewBox="0 0 450 450"><path fill="#1a3a49" d="M10.246 374.524h429.508v4H10.246z"/><path fill="#b94768" d="M315.102 125.554c-.111-1.056-2.58-26.008 9.155-39.31 4.553-5.16 10.635-7.854 18.079-8.007l.061 3c-6.57.134-11.916 2.487-15.89 6.992-10.872 12.325-8.448 36.766-8.422 37.012l-2.983.313z"/><circle cx="320.172" cy="125.397" r="11.708" fill="#fe6081"/><path fill="#06112d" d="m390.846 374.448-5.081-28.158h-10.24l5.08 28.158zM294.687 374.448l5.08-28.158h-10.24l-5.08 28.158z"/><path fill="#070d2b" d="M398.983 348.904h-97.748a4.382 4.382 0 0 1 0-8.765h97.748l20.614-153.69a4.383 4.383 0 0 1 8.688 1.164L407.7 341.269c-.575 4.35-4.324 7.635-8.718 7.635z"/><path fill="#0e1738" d="M338.4 182.687a4.38 4.38 0 0 0-4.926 3.762l-20.614 153.69H239.3a4.382 4.382 0 0 0 0 8.765h61.935a4.382 4.382 0 0 1 0-8.765h97.748l20.614-153.69a4.38 4.38 0 0 1 4.926-3.762H338.4z"/><path fill="#070d2b" d="m327.515 205.147 12.503 8.23h39.615c6.522 0 11.25-5.952 10.089-12.37l-.029-.165c-1.206-7.317 5.612-13.398 7.406-20.594 1.595-6.39-.937-13.118-4.416-18.71-3.478-5.591-7.934-10.585-10.815-16.506-4.345-8.951-4.933-14.961-1.186-24.172l-43.23-24.47c-5.522 6.3-10.256 13.316-13.925 20.852a89.017 89.017 0 0 0-8.273 28.089c-.638 5.273-.797 10.596-.967 15.908l-.388 12.789c-.26 8.333-.27 17.453 4.924 23.982 2.342 2.95 5.542 5.074 8.692 7.137z"/><path fill="#fe6081" d="m333.058 211.169-20.772 56.773-6.212 16.982-.11.208-.405.833h-90.31v-24.706l61.463-6.672s30.896-66.623 39.058-74.39c5.61-5.347 13.541-6.968 13.541-6.968l3.747 37.94z"/><path fill="#b94768" d="m320.284 215.255-7.998 52.687-6.322 17.19c-1.851.23-4.273.515-7 .833h-45.227c-6.639-2.356-11.525-5.139-2.333-6.125 16.981-1.83 48.206-13.398 48.206-21.857 0-8.192-4.657-22.561 3.834-40.405 1.965-4.129 8.173-21.561 8.173-21.561l8.667 19.238z"/><path fill="#06112d" d="M277.585 356.852h12.14v17.596h-12.14z"/><path fill="#3a6dc9" d="m262.183 374.448 4.062-14.56 12.589-32.55 51.087-19.305 16.85-11.394-21.057-5.062-1.808-.668-13.322-4.94-5.697 7.942-52.117 5.226c-9.828.997-17.946 8.118-20.203 17.727l-13.425 57.584h43.041z"/><path fill="#1c5ab5" d="m346.771 296.639-16.85 11.394-51.087 19.304-12.589 32.55-1.358-36.811c-.537-12.884 8.83-24.048 21.605-25.769l26.327-3.747 11.087-2.65 1.808.667 21.057 5.062z"/><path fill="#3a6dc9" d="m314.574 374.448.274-33.866h27.213c18.661 0 34.096-14.56 35.178-33.194l-.557-27.548-57.346 13.718-26.32 3.748c-12.779 1.72-22.144 12.889-21.611 25.771l1.89 51.37h41.28z"/><path fill="#fe6081" d="M382.458 251.18c-.055.514-4.35 34.434-4.557 44.743-.734 9.379-75.377 3.54-74.643-5.85 0 0 .723-16.554 2.136-36.626.011-.01 0-.01 0-.01-.975-2.465-1.851-4.974-2.541-7.538-1.38-5.127-1.961-10.55-.932-15.766.965-4.864 3.287-9.345 5.073-13.98 1.15-2.99 2.07-6.058 2.849-9.159.01-.021.01-.032.01-.043.69-5.029 1.436-9.543 2.225-13.235.01-.022.01-.044.01-.065.274-2.159.614-4.274 1.195-6.279.843-2.881 3.78-5.992 5.872-8.063 2.849-2.805 6.344-4.875 10.156-6.08a26.69 26.69 0 0 1 2.597-.691c8.501-1.786 22.317-3.133 30.632-1.895 2.378.35 5.413.755 8.688 1.654 6.388 1.71 13.356 5.38 15.569 10.08 7.406 15.732-2.893 54.768-4.339 68.803z"/><path fill="#b94768" d="M368.865 188.557s-4.144 8.693-8.724 20.399c-4.58 11.705-6.847 46.487-6.847 46.487l-49.11 10.906 21.205 5.004 45.411-5.767 7.177-46.82-9.112-30.21z"/><path fill="#fe8b70" d="m418.315 374.448-17.618-80.79h-8.313l17.619 80.79zM119.72 374.448l17.618-80.79h-8.312l-17.618 80.79z"/><path fill="#fcc283" d="M89.968 285.964h349.785v10.88H89.968z" transform="rotate(-180 264.861 291.404)"/><path fill="#a7abc6" d="M265.653 277.39h-57.525v8.574h65.377v-.722a7.852 7.852 0 0 0-7.852-7.851z"/><path fill="#a7abc6" d="M196.442 285.964h36.976l-10.981-75.516a5.65 5.65 0 0 0-5.586-4.833h-20.41v80.349z"/><path fill="#d7daf4" d="M228.035 285.964h-84.873l-10.754-73.89c-.502-3.397 2.141-6.459 5.586-6.459h73.474a5.65 5.65 0 0 1 5.586 4.833l10.981 75.516z"/><path fill="#a7abc6" d="M181.734 259.887c-4.69 0-9.187-3.817-10.048-8.506-.85-4.7 2.26-8.505 6.962-8.505 4.689 0 9.187 3.805 10.048 8.505.85 4.702-2.261 8.506-6.962 8.506z"/><path fill="#fe6081" d="m395.463 244.278-3.506 29.46c-.789 6.968-6.683 12.227-13.684 12.227h-73.547l-.537-19.611 51.515-7.713s-1.726-78.308 27.817-80.318c0 0 10.72 7.009 13.793 31.936 1.278 10.36-1.183 25.035-1.851 34.019z"/><path fill="#fec3bd" d="M304.726 285.965H267.18c-.022-.011-.044-.022-.065-.022-2.991-1.348 3.79-3.78 5.379-4.295-2.18-.076-7.056 1.161-7.779-.537-1.15-2.695 5.248-3.615 7.428-3.933-2.147.186-8.523.23-9.104-2.64-.427-2.148 6.245-1.907 10.923-2.016-1.512-.395-4.908-2.191-5.314-3.758-.832-3.188 11.405-2.07 17.168-1.14-1.873-1.906-5.456-6.332-3.812-7.384 3.286-2.07 22.185 6.114 22.185 6.114l.537 19.61zM335.67 196.017c9.76 3.345 25.136-25.402 25.136-25.402l-2.137-23.905-9.38-1.778-8.095 5.57-7.475 5.14.957 9.919-.974 6.622s-5.199 21.377 1.967 23.834z"/><path fill="#f18b89" d="m333.719 155.643.957 9.918s17.858-6.719 20.474-14.385c1.76-5.178-7.657-2.78-13.956-.675l-7.475 5.142z"/><path fill="#fec3bd" d="M326.98 161.432c18.908 5.378 31.686-14.727 31.686-14.727s10.866-1.671 11.284-9.888-6.127-9.194-8.359-6.828c0 0-2.925-35.105-25.208-34.545-8.76.217-14.669 9.754-17.486 21.497-4.346 18.13-3.016 41.334 8.083 44.491z"/><path fill="#070d2b" d="M315.35 108.017c1.833 19.766 37.548.827 34.06 7.146-3.49 6.31 2.002 5.599 5.96 13.397 2.948 5.809 2.636 8.675 3.384 8.986.926.386 1.633-1.48 2.108-3.456 1.163-4.822 8.307-4.584 8.999.328.101.719.136 1.516.092 2.396-.42 8.223-11.284 9.887-11.284 9.887l.66 7.384c32.14-18.032 30.117-69.16-18.801-71.157-18.86-.77-27.003 5.323-25.179 25.089z"/><ellipse cx="337.945" cy="128.558" fill="#06112d" rx="2.55" ry="1.7" transform="rotate(-87.377 337.945 128.558)"/><path fill="#06112d" d="M340.528 124.804a.497.497 0 0 1-.31-.109c-2.632-2.096-4.154-.834-4.218-.779a.503.503 0 0 1-.704-.046.498.498 0 0 1 .038-.7c.088-.08 2.184-1.905 5.506.744a.5.5 0 0 1-.312.89z"/><ellipse cx="323.575" cy="128.558" fill="#06112d" rx="2.55" ry="1.7" transform="rotate(-87.377 323.575 128.558)"/><path fill="#06112d" d="M326.158 124.804a.498.498 0 0 1-.31-.108c-2.631-2.097-4.155-.835-4.219-.78a.503.503 0 0 1-.703-.046.498.498 0 0 1 .038-.7c.087-.08 2.184-1.904 5.506.743a.5.5 0 0 1-.312.891z"/><path fill="#f18b89" d="M327.837 141.932a.498.498 0 0 1-.333-.126c-.685-.61-1.076-1.428-1.102-2.304a3.122 3.122 0 0 1 .934-2.311c.24-.24.507-.445.767-.644.15-.114.3-.229.441-.35.92-.78 1.54-1.886 1.794-3.198.236-1.216.158-2.492.082-3.726a.5.5 0 0 1 .469-.53.494.494 0 0 1 .53.47c.079 1.296.161 2.636-.1 3.977-.298 1.536-1.033 2.84-2.127 3.77-.154.13-.318.256-.481.381-.233.179-.466.355-.667.556-.432.433-.66.993-.643 1.576.018.598.29 1.161.768 1.586a.5.5 0 0 1-.332.873zM332.077 148.992c-.077 0-.155-.001-.233-.004a.5.5 0 0 1 .037-1c1.94.07 3.895-.924 4.975-2.539a.5.5 0 1 1 .831.556c-1.225 1.833-3.407 2.987-5.61 2.987z"/><path fill="#eae8fe" d="m101.99 153.031 5.024 1.996.2 4.634a17.183 17.183 0 0 1 3.054 2.968l4.64.065 2.14 4.964-3.136 3.42c.196 1.396.221 2.825.064 4.257l3.233 3.326-1.996 5.024-4.634.2a17.167 17.167 0 0 1-2.968 3.054l-.066 4.64-4.963 2.14-3.42-3.135c-1.397.195-2.825.22-4.258.063l-3.326 3.233-5.023-1.996-.2-4.634a17.18 17.18 0 0 1-3.054-2.968l-4.64-.066-2.141-4.963 3.136-3.42a17.183 17.183 0 0 1-.063-4.257l-3.233-3.326 1.996-5.024 4.634-.2a17.183 17.183 0 0 1 2.967-3.054l.066-4.64 4.964-2.14 3.42 3.135a17.18 17.18 0 0 1 4.257-.063l3.326-3.233z"/><path fill="#a7abc6" d="M100.44 164.265c-5.084-2.02-10.835.461-12.851 5.537-2.017 5.076.464 10.827 5.548 12.847 5.076 2.016 10.826-.464 12.843-5.54 2.016-5.076-.464-10.827-5.54-12.844z"/><path fill="#fff" d="M100.053 165.239c-4.545-1.806-9.687.412-11.49 4.95-1.803 4.538.415 9.68 4.96 11.486a8.843 8.843 0 0 0 6.53-16.436z"/><path fill="#eae8fe" d="m72.054 187.702 4.124 1.638.165 3.804a14.105 14.105 0 0 1 2.507 2.437l3.808.054 1.758 4.074-2.575 2.808c.16 1.146.181 2.319.052 3.495l2.654 2.73-1.638 4.124-3.804.164a14.092 14.092 0 0 1-2.436 2.507l-.054 3.809-4.075 1.757-2.807-2.574c-1.147.16-2.32.18-3.495.051l-2.73 2.654-4.125-1.638-.164-3.804a14.103 14.103 0 0 1-2.507-2.436l-3.808-.054-1.758-4.075 2.575-2.807a14.105 14.105 0 0 1-.052-3.495l-2.654-2.73 1.638-4.124 3.804-.165a14.106 14.106 0 0 1 2.436-2.506l.054-3.81 4.075-1.757 2.807 2.575c1.147-.16 2.32-.181 3.495-.052l2.73-2.654z"/><path fill="#a7abc6" d="M70.764 196.969a8.073 8.073 0 0 0-10.487 4.518 8.073 8.073 0 0 0 4.527 10.483 8.071 8.071 0 0 0 5.96-15.001z"/><path fill="#238a6f" d="M53.162 246.766s-1.24 10.982-2.862 15.983c-1.622 5-3.162 9.778-1.832 21.737 1.33 11.959 2.103 12.95 2.41 16.05.308 3.102-.029 16.185.654 18.34.682 2.154-3.74 17.151-4.02 23.582-.085 1.932-.247 4.135-.39 6.383l.814-.007c.246-2.74.748-5.77 1.66-8.942 3.45-11.998 1.885-13.534 7.81-21.064 5.923-7.53 6.24-23.05 6.24-23.05s2.738-17.644-.206-25.378c-2.944-7.734-3.23-15.49-10.278-23.634zM34.928 307.815c2.777-6.007-1.504-21.433 2.463-28.358 3.967-6.925 1.818-17.727.858-21.875-.959-4.148.038-6.982.834-11.37.795-4.389-1.013-10.739-1.013-10.739-.106 5.432-4.179 12.89-7.132 17.68-2.954 4.79-8.5 17.802-7.788 23.67.713 5.868.384 6.314.384 6.314-2.042 7.886.082 10.085-.514 18.624-.596 8.538 4.83 7.83 5.095 13.258.266 5.428 7.433 14.569 10.772 21.08 1.737 3.388 2.41 8.582 2.657 12.787l2.64-.021c-1.108-10.64-5.489-18.017-8.12-23.936-3.386-7.62-3.913-11.107-1.136-17.114z"/><path fill="#37c092" d="M47.609 342.601c-.06.748-.105 1.512-.165 2.245v.016c-.539.388-1.032.778-1.496 1.167-.45.374-.898.823-1.317 1.332-.18.21-.36.434-.524.658-.3.375-.584.779-.854 1.197-.853 1.273-1.616 2.665-2.245 3.937l-1.601-.703a30.257 30.257 0 0 1 2.963-4.416c.27-.359.57-.718.869-1.047.464-.554.957-1.078 1.436-1.572a50.756 50.756 0 0 1 2.934-2.814z"/><path fill="#37c092" d="m47.145 352.39-1.587.733c-.658-1.257-1.436-2.634-2.305-3.907a14.352 14.352 0 0 0-.883-1.182c.27-.359.57-.718.869-1.047.284.33.583.673.868 1.032.18.21.344.42.494.629.12.12.21.254.299.374a28.672 28.672 0 0 1 2.245 3.368z"/><path fill="#37c092" d="M43.239 346.987c-.3.33-.6.688-.869 1.047-.598-.763-1.227-1.437-1.87-1.96-3.787-3.053-10.597-6.66-12.229-9.878-1.616-3.234-4.714-1.333-6.66-6.676-1.946-5.343-3.816-6.106-4.715-11.435 0 0 .09-.36-1.93-3.727-2.006-3.368-2.156-12.767-1.647-16.464.494-3.696.958-9.324-.449-12.647 0 0 2.814 3.368 3.518 6.242.688 2.873.853 4.864 2.559 7.124 1.691 2.26 5.912 8.232 5.373 13.5-.539 5.27 6.211 13.47 6.152 17.871-.075 4.385 1.197 6.361 5.298 10.073 2.095 1.901 4.834 3.98 7.469 6.93zM47.609 342.601a50.756 50.756 0 0 0-2.934 2.814c.165-7.259.405-14.279-.538-17.033-1.737-5.073-3.802-11.853-3.697-18.184.104-6.332-8.89-10.582-8.83-22.017.074-11.435-2.755-17.272-5.135-24.83-2.38-7.544.6-21.464.6-21.464 17.556 12.977 16.897 27.196 21.163 39.05 4.265 11.854 2.32 20.37 2.095 29.8-.24 9.413-2.664 13.77-2.32 19.172.18 2.71-.045 7.783-.404 12.692z"/><path fill="#37c092" d="M70.958 313.895c-1.811 3.158-1.871 3.696-1.871 3.756-.794 5.358-2.664 6.151-4.52 11.525-1.856 5.373-4.984 3.517-6.556 6.765-1.377 2.844-6.75 6.062-10.567 8.905.06-.733.105-1.497.165-2.245 1.063-.957 2.08-1.825 2.978-2.664 4.042-3.771 5.269-5.762 5.134-10.162-.135-4.386 6.48-12.708 5.852-17.96-.613-5.27 3.503-11.302 5.164-13.591 1.661-2.29 1.796-4.28 2.44-7.17.658-2.888 3.412-6.3 3.412-6.3-1.347 3.352-.793 8.964-.24 12.662.57 3.697.57 13.081-1.391 16.479z"/><path fill="#37c092" d="M47.609 342.601c-.06.748-.105 1.512-.165 2.245v.016c-.12 1.45-.24 2.858-.359 4.145l-2.185.015h-.3v-.374c.016-.434.016-.868.03-1.287l.045-1.946a50.756 50.756 0 0 1 2.934-2.814z"/><path fill="#fcc283" d="M23.202 327.83a3.769 3.769 0 0 0-3.736 4.004c.807 12.956 3.824 43.592 14.286 42.59l22.539-.183c10.477.832 12.996-29.85 13.592-42.817a3.769 3.769 0 0 0-3.8-3.941l-42.88.348z"/><path fill="#fff" d="M70.384 197.925a7.044 7.044 0 0 0-9.15 3.942 7.044 7.044 0 0 0 3.95 9.147 7.043 7.043 0 0 0 5.2-13.09z"/><path fill="#fcc283" d="M192.147 75.979v24.572a4.508 4.508 0 0 1-4.504 4.503H61.093a4.5 4.5 0 0 1-4.494-4.503V75.98a4.5 4.5 0 0 1 4.494-4.503h126.55a4.507 4.507 0 0 1 4.504 4.503z"/><path fill="#fff" d="m78.928 80.673 2.467 4.998 5.515.801-3.991 3.89.942 5.493-4.933-2.593-4.933 2.593.942-5.493-3.99-3.89 5.515-.801zM101.65 80.673l2.466 4.998 5.515.801-3.99 3.89.942 5.493-4.933-2.593-4.933 2.593.942-5.493-3.99-3.89 5.514-.801zM124.371 80.673l2.467 4.998 5.515.801-3.99 3.89.941 5.493-4.933-2.593-4.933 2.593.942-5.493-3.99-3.89 5.515-.801zM147.093 80.673l2.466 4.998 5.515.801-3.99 3.89.942 5.493-4.933-2.593-4.933 2.593.942-5.493-3.99-3.89 5.514-.801zM169.814 80.673l2.467 4.998 5.515.801-3.99 3.89.941 5.493-4.933-2.593-4.933 2.593.943-5.493-3.991-3.89 5.515-.801z"/><path fill="#82cafa" d="M258.492 147.773v16.74h-75.67c-9.24 0-16.74-7.49-16.74-16.74 0-4.631 1.872-8.808 4.908-11.844a16.688 16.688 0 0 1 11.832-4.897h58.93c9.24 0 16.74 7.49 16.74 16.74z"/><path fill="#218ae5" d="M182.992 140.737h60.5v1.75h-60.5zM182.992 146.898h60.5v1.75h-60.5zM182.992 153.058h12.75v1.75h-12.75zM200.617 153.058h6.625v1.75h-6.625zM211.242 153.058h14.5v1.75h-14.5z"/><path fill="#b94768" d="M354.37 157.091c-.497 0-.998-.072-1.488-.223l-9.895-3.05.589-1.912 9.895 3.05a3.137 3.137 0 0 0 3.51-1.247l4.776-7.154 1.663 1.11-4.776 7.155a5.152 5.152 0 0 1-4.274 2.271z"/><circle cx="362.742" cy="138.654" r="11.708" fill="#fe6081"/><circle cx="362.742" cy="138.654" r="6.633" fill="#b94768"/><path fill="#b94768" d="m364.24 138.736-2.996-.164c.022-.407 2.074-40.852-10.292-53.646-2.466-2.55-5.277-3.766-8.555-3.69l-.061-2.999c4.138-.08 7.74 1.466 10.773 4.605 13.272 13.733 11.224 54.178 11.13 55.894z"/><circle cx="343.281" cy="152.862" r="3.233" fill="#b94768"/><circle cx="419.592" cy="96.39" r="13.796" fill="#82cafa"/><circle cx="419.592" cy="92.16" r="3.05" fill="#fff"/><path fill="#fff" d="M426.764 103.669H412.42c.196-3.806 3.33-6.843 7.173-6.843 3.854 0 6.99 3.037 7.172 6.843z"/></svg>